<?xml version="1.0" encoding="utf-8" standalone="no"?>
<!DOCTYPE svg PUBLIC "-//W3C//DTD SVG 1.1//EN"
  "http://www.w3.org/Graphics/SVG/1.1/DTD/svg11.dtd">
<!-- Created with matplotlib (https://matplotlib.org/) -->
<svg height="288pt" version="1.1" viewBox="0 0 432 288" width="432pt" xmlns="http://www.w3.org/2000/svg" xmlns:xlink="http://www.w3.org/1999/xlink">
 <metadata>
  <rdf:RDF xmlns:cc="http://creativecommons.org/ns#" xmlns:dc="http://purl.org/dc/elements/1.1/" xmlns:rdf="http://www.w3.org/1999/02/22-rdf-syntax-ns#">
   <cc:Work>
    <dc:type rdf:resource="http://purl.org/dc/dcmitype/StillImage"/>
    <dc:date>2022-02-14T12:52:32.953693</dc:date>
    <dc:format>image/svg+xml</dc:format>
    <dc:creator>
     <cc:Agent>
      <dc:title>Matplotlib v3.3.3, https://matplotlib.org/</dc:title>
     </cc:Agent>
    </dc:creator>
   </cc:Work>
  </rdf:RDF>
 </metadata>
 <defs>
  <style type="text/css">*{stroke-linecap:butt;stroke-linejoin:round;}</style>
 </defs>
 <g id="figure_1">
  <g id="patch_1">
   <path d="M 0 288 
L 432 288 
L 432 0 
L 0 0 
z
" style="fill:none;"/>
  </g>
  <g id="axes_1">
   <g id="patch_2">
    <path d="M 54 252 
L 388.8 252 
L 388.8 34.56 
L 54 34.56 
z
" style="fill:#ffffff;"/>
   </g>
   <g id="matplotlib.axis_1">
    <g id="xtick_1">
     <g id="line2d_1">
      <defs>
       <path d="M 0 0 
L 0 3.5 
" id="ma6c450435a" style="stroke:#000000;stroke-width:0.8;"/>
      </defs>
      <g>
       <use style="stroke:#000000;stroke-width:0.8;" x="69.218182" xlink:href="#ma6c450435a" y="252"/>
      </g>
     </g>
     <g id="text_1">
      <!-- 0.0 -->
      <g transform="translate(61.266619 266.598437)scale(0.1 -0.1)">
       <defs>
        <path d="M 31.78125 66.40625 
Q 24.171875 66.40625 20.328125 58.90625 
Q 16.5 51.421875 16.5 36.375 
Q 16.5 21.390625 20.328125 13.890625 
Q 24.171875 6.390625 31.78125 6.390625 
Q 39.453125 6.390625 43.28125 13.890625 
Q 47.125 21.390625 47.125 36.375 
Q 47.125 51.421875 43.28125 58.90625 
Q 39.453125 66.40625 31.78125 66.40625 
z
M 31.78125 74.21875 
Q 44.046875 74.21875 50.515625 64.515625 
Q 56.984375 54.828125 56.984375 36.375 
Q 56.984375 17.96875 50.515625 8.265625 
Q 44.046875 -1.421875 31.78125 -1.421875 
Q 19.53125 -1.421875 13.0625 8.265625 
Q 6.59375 17.96875 6.59375 36.375 
Q 6.59375 54.828125 13.0625 64.515625 
Q 19.53125 74.21875 31.78125 74.21875 
z
" id="DejaVuSans-48"/>
        <path d="M 10.6875 12.40625 
L 21 12.40625 
L 21 0 
L 10.6875 0 
z
" id="DejaVuSans-46"/>
       </defs>
       <use xlink:href="#DejaVuSans-48"/>
       <use x="63.623047" xlink:href="#DejaVuSans-46"/>
       <use x="95.410156" xlink:href="#DejaVuSans-48"/>
      </g>
     </g>
    </g>
    <g id="xtick_2">
     <g id="line2d_2">
      <g>
       <use style="stroke:#000000;stroke-width:0.8;" x="130.090909" xlink:href="#ma6c450435a" y="252"/>
      </g>
     </g>
     <g id="text_2">
      <!-- 0.2 -->
      <g transform="translate(122.139347 266.598437)scale(0.1 -0.1)">
       <defs>
        <path d="M 19.1875 8.296875 
L 53.609375 8.296875 
L 53.609375 0 
L 7.328125 0 
L 7.328125 8.296875 
Q 12.9375 14.109375 22.625 23.890625 
Q 32.328125 33.6875 34.8125 36.53125 
Q 39.546875 41.84375 41.421875 45.53125 
Q 43.3125 49.21875 43.3125 52.78125 
Q 43.3125 58.59375 39.234375 62.25 
Q 35.15625 65.921875 28.609375 65.921875 
Q 23.96875 65.921875 18.8125 64.3125 
Q 13.671875 62.703125 7.8125 59.421875 
L 7.8125 69.390625 
Q 13.765625 71.78125 18.9375 73 
Q 24.125 74.21875 28.421875 74.21875 
Q 39.75 74.21875 46.484375 68.546875 
Q 53.21875 62.890625 53.21875 53.421875 
Q 53.21875 48.921875 51.53125 44.890625 
Q 49.859375 40.875 45.40625 35.40625 
Q 44.1875 33.984375 37.640625 27.21875 
Q 31.109375 20.453125 19.1875 8.296875 
z
" id="DejaVuSans-50"/>
       </defs>
       <use xlink:href="#DejaVuSans-48"/>
       <use x="63.623047" xlink:href="#DejaVuSans-46"/>
       <use x="95.410156" xlink:href="#DejaVuSans-50"/>
      </g>
     </g>
    </g>
    <g id="xtick_3">
     <g id="line2d_3">
      <g>
       <use style="stroke:#000000;stroke-width:0.8;" x="190.963636" xlink:href="#ma6c450435a" y="252"/>
      </g>
     </g>
     <g id="text_3">
      <!-- 0.4 -->
      <g transform="translate(183.012074 266.598437)scale(0.1 -0.1)">
       <defs>
        <path d="M 37.796875 64.3125 
L 12.890625 25.390625 
L 37.796875 25.390625 
z
M 35.203125 72.90625 
L 47.609375 72.90625 
L 47.609375 25.390625 
L 58.015625 25.390625 
L 58.015625 17.1875 
L 47.609375 17.1875 
L 47.609375 0 
L 37.796875 0 
L 37.796875 17.1875 
L 4.890625 17.1875 
L 4.890625 26.703125 
z
" id="DejaVuSans-52"/>
       </defs>
       <use xlink:href="#DejaVuSans-48"/>
       <use x="63.623047" xlink:href="#DejaVuSans-46"/>
       <use x="95.410156" xlink:href="#DejaVuSans-52"/>
      </g>
     </g>
    </g>
    <g id="xtick_4">
     <g id="line2d_4">
      <g>
       <use style="stroke:#000000;stroke-width:0.8;" x="251.836364" xlink:href="#ma6c450435a" y="252"/>
      </g>
     </g>
     <g id="text_4">
      <!-- 0.6 -->
      <g transform="translate(243.884801 266.598437)scale(0.1 -0.1)">
       <defs>
        <path d="M 33.015625 40.375 
Q 26.375 40.375 22.484375 35.828125 
Q 18.609375 31.296875 18.609375 23.390625 
Q 18.609375 15.53125 22.484375 10.953125 
Q 26.375 6.390625 33.015625 6.390625 
Q 39.65625 6.390625 43.53125 10.953125 
Q 47.40625 15.53125 47.40625 23.390625 
Q 47.40625 31.296875 43.53125 35.828125 
Q 39.65625 40.375 33.015625 40.375 
z
M 52.59375 71.296875 
L 52.59375 62.3125 
Q 48.875 64.0625 45.09375 64.984375 
Q 41.3125 65.921875 37.59375 65.921875 
Q 27.828125 65.921875 22.671875 59.328125 
Q 17.53125 52.734375 16.796875 39.40625 
Q 19.671875 43.65625 24.015625 45.921875 
Q 28.375 48.1875 33.59375 48.1875 
Q 44.578125 48.1875 50.953125 41.515625 
Q 57.328125 34.859375 57.328125 23.390625 
Q 57.328125 12.15625 50.6875 5.359375 
Q 44.046875 -1.421875 33.015625 -1.421875 
Q 20.359375 -1.421875 13.671875 8.265625 
Q 6.984375 17.96875 6.984375 36.375 
Q 6.984375 53.65625 15.1875 63.9375 
Q 23.390625 74.21875 37.203125 74.21875 
Q 40.921875 74.21875 44.703125 73.484375 
Q 48.484375 72.75 52.59375 71.296875 
z
" id="DejaVuSans-54"/>
       </defs>
       <use xlink:href="#DejaVuSans-48"/>
       <use x="63.623047" xlink:href="#DejaVuSans-46"/>
       <use x="95.410156" xlink:href="#DejaVuSans-54"/>
      </g>
     </g>
    </g>
    <g id="xtick_5">
     <g id="line2d_5">
      <g>
       <use style="stroke:#000000;stroke-width:0.8;" x="312.709091" xlink:href="#ma6c450435a" y="252"/>
      </g>
     </g>
     <g id="text_5">
      <!-- 0.8 -->
      <g transform="translate(304.757528 266.598437)scale(0.1 -0.1)">
       <defs>
        <path d="M 31.78125 34.625 
Q 24.75 34.625 20.71875 30.859375 
Q 16.703125 27.09375 16.703125 20.515625 
Q 16.703125 13.921875 20.71875 10.15625 
Q 24.75 6.390625 31.78125 6.390625 
Q 38.8125 6.390625 42.859375 10.171875 
Q 46.921875 13.96875 46.921875 20.515625 
Q 46.921875 27.09375 42.890625 30.859375 
Q 38.875 34.625 31.78125 34.625 
z
M 21.921875 38.8125 
Q 15.578125 40.375 12.03125 44.71875 
Q 8.5 49.078125 8.5 55.328125 
Q 8.5 64.0625 14.71875 69.140625 
Q 20.953125 74.21875 31.78125 74.21875 
Q 42.671875 74.21875 48.875 69.140625 
Q 55.078125 64.0625 55.078125 55.328125 
Q 55.078125 49.078125 51.53125 44.71875 
Q 48 40.375 41.703125 38.8125 
Q 48.828125 37.15625 52.796875 32.3125 
Q 56.78125 27.484375 56.78125 20.515625 
Q 56.78125 9.90625 50.3125 4.234375 
Q 43.84375 -1.421875 31.78125 -1.421875 
Q 19.734375 -1.421875 13.25 4.234375 
Q 6.78125 9.90625 6.78125 20.515625 
Q 6.78125 27.484375 10.78125 32.3125 
Q 14.796875 37.15625 21.921875 38.8125 
z
M 18.3125 54.390625 
Q 18.3125 48.734375 21.84375 45.5625 
Q 25.390625 42.390625 31.78125 42.390625 
Q 38.140625 42.390625 41.71875 45.5625 
Q 45.3125 48.734375 45.3125 54.390625 
Q 45.3125 60.0625 41.71875 63.234375 
Q 38.140625 66.40625 31.78125 66.40625 
Q 25.390625 66.40625 21.84375 63.234375 
Q 18.3125 60.0625 18.3125 54.390625 
z
" id="DejaVuSans-56"/>
       </defs>
       <use xlink:href="#DejaVuSans-48"/>
       <use x="63.623047" xlink:href="#DejaVuSans-46"/>
       <use x="95.410156" xlink:href="#DejaVuSans-56"/>
      </g>
     </g>
    </g>
    <g id="xtick_6">
     <g id="line2d_6">
      <g>
       <use style="stroke:#000000;stroke-width:0.8;" x="373.581818" xlink:href="#ma6c450435a" y="252"/>
      </g>
     </g>
     <g id="text_6">
      <!-- 1.0 -->
      <g transform="translate(365.630256 266.598437)scale(0.1 -0.1)">
       <defs>
        <path d="M 12.40625 8.296875 
L 28.515625 8.296875 
L 28.515625 63.921875 
L 10.984375 60.40625 
L 10.984375 69.390625 
L 28.421875 72.90625 
L 38.28125 72.90625 
L 38.28125 8.296875 
L 54.390625 8.296875 
L 54.390625 0 
L 12.40625 0 
z
" id="DejaVuSans-49"/>
       </defs>
       <use xlink:href="#DejaVuSans-49"/>
       <use x="63.623047" xlink:href="#DejaVuSans-46"/>
       <use x="95.410156" xlink:href="#DejaVuSans-48"/>
      </g>
     </g>
    </g>
    <g id="text_7">
     <!-- Relative Threshold -->
     <g transform="translate(175.008594 280.276563)scale(0.1 -0.1)">
      <defs>
       <path d="M 44.390625 34.1875 
Q 47.5625 33.109375 50.5625 29.59375 
Q 53.5625 26.078125 56.59375 19.921875 
L 66.609375 0 
L 56 0 
L 46.6875 18.703125 
Q 43.0625 26.03125 39.671875 28.421875 
Q 36.28125 30.8125 30.421875 30.8125 
L 19.671875 30.8125 
L 19.671875 0 
L 9.8125 0 
L 9.8125 72.90625 
L 32.078125 72.90625 
Q 44.578125 72.90625 50.734375 67.671875 
Q 56.890625 62.453125 56.890625 51.90625 
Q 56.890625 45.015625 53.6875 40.46875 
Q 50.484375 35.9375 44.390625 34.1875 
z
M 19.671875 64.796875 
L 19.671875 38.921875 
L 32.078125 38.921875 
Q 39.203125 38.921875 42.84375 42.21875 
Q 46.484375 45.515625 46.484375 51.90625 
Q 46.484375 58.296875 42.84375 61.546875 
Q 39.203125 64.796875 32.078125 64.796875 
z
" id="DejaVuSans-82"/>
       <path d="M 56.203125 29.59375 
L 56.203125 25.203125 
L 14.890625 25.203125 
Q 15.484375 15.921875 20.484375 11.0625 
Q 25.484375 6.203125 34.421875 6.203125 
Q 39.59375 6.203125 44.453125 7.46875 
Q 49.3125 8.734375 54.109375 11.28125 
L 54.109375 2.78125 
Q 49.265625 0.734375 44.1875 -0.34375 
Q 39.109375 -1.421875 33.890625 -1.421875 
Q 20.796875 -1.421875 13.15625 6.1875 
Q 5.515625 13.8125 5.515625 26.8125 
Q 5.515625 40.234375 12.765625 48.109375 
Q 20.015625 56 32.328125 56 
Q 43.359375 56 49.78125 48.890625 
Q 56.203125 41.796875 56.203125 29.59375 
z
M 47.21875 32.234375 
Q 47.125 39.59375 43.09375 43.984375 
Q 39.0625 48.390625 32.421875 48.390625 
Q 24.90625 48.390625 20.390625 44.140625 
Q 15.875 39.890625 15.1875 32.171875 
z
" id="DejaVuSans-101"/>
       <path d="M 9.421875 75.984375 
L 18.40625 75.984375 
L 18.40625 0 
L 9.421875 0 
z
" id="DejaVuSans-108"/>
       <path d="M 34.28125 27.484375 
Q 23.390625 27.484375 19.1875 25 
Q 14.984375 22.515625 14.984375 16.5 
Q 14.984375 11.71875 18.140625 8.90625 
Q 21.296875 6.109375 26.703125 6.109375 
Q 34.1875 6.109375 38.703125 11.40625 
Q 43.21875 16.703125 43.21875 25.484375 
L 43.21875 27.484375 
z
M 52.203125 31.203125 
L 52.203125 0 
L 43.21875 0 
L 43.21875 8.296875 
Q 40.140625 3.328125 35.546875 0.953125 
Q 30.953125 -1.421875 24.3125 -1.421875 
Q 15.921875 -1.421875 10.953125 3.296875 
Q 6 8.015625 6 15.921875 
Q 6 25.140625 12.171875 29.828125 
Q 18.359375 34.515625 30.609375 34.515625 
L 43.21875 34.515625 
L 43.21875 35.40625 
Q 43.21875 41.609375 39.140625 45 
Q 35.0625 48.390625 27.6875 48.390625 
Q 23 48.390625 18.546875 47.265625 
Q 14.109375 46.140625 10.015625 43.890625 
L 10.015625 52.203125 
Q 14.9375 54.109375 19.578125 55.046875 
Q 24.21875 56 28.609375 56 
Q 40.484375 56 46.34375 49.84375 
Q 52.203125 43.703125 52.203125 31.203125 
z
" id="DejaVuSans-97"/>
       <path d="M 18.3125 70.21875 
L 18.3125 54.6875 
L 36.8125 54.6875 
L 36.8125 47.703125 
L 18.3125 47.703125 
L 18.3125 18.015625 
Q 18.3125 11.328125 20.140625 9.421875 
Q 21.96875 7.515625 27.59375 7.515625 
L 36.8125 7.515625 
L 36.8125 0 
L 27.59375 0 
Q 17.1875 0 13.234375 3.875 
Q 9.28125 7.765625 9.28125 18.015625 
L 9.28125 47.703125 
L 2.6875 47.703125 
L 2.6875 54.6875 
L 9.28125 54.6875 
L 9.28125 70.21875 
z
" id="DejaVuSans-116"/>
       <path d="M 9.421875 54.6875 
L 18.40625 54.6875 
L 18.40625 0 
L 9.421875 0 
z
M 9.421875 75.984375 
L 18.40625 75.984375 
L 18.40625 64.59375 
L 9.421875 64.59375 
z
" id="DejaVuSans-105"/>
       <path d="M 2.984375 54.6875 
L 12.5 54.6875 
L 29.59375 8.796875 
L 46.6875 54.6875 
L 56.203125 54.6875 
L 35.6875 0 
L 23.484375 0 
z
" id="DejaVuSans-118"/>
       <path id="DejaVuSans-32"/>
       <path d="M -0.296875 72.90625 
L 61.375 72.90625 
L 61.375 64.59375 
L 35.5 64.59375 
L 35.5 0 
L 25.59375 0 
L 25.59375 64.59375 
L -0.296875 64.59375 
z
" id="DejaVuSans-84"/>
       <path d="M 54.890625 33.015625 
L 54.890625 0 
L 45.90625 0 
L 45.90625 32.71875 
Q 45.90625 40.484375 42.875 44.328125 
Q 39.84375 48.1875 33.796875 48.1875 
Q 26.515625 48.1875 22.3125 43.546875 
Q 18.109375 38.921875 18.109375 30.90625 
L 18.109375 0 
L 9.078125 0 
L 9.078125 75.984375 
L 18.109375 75.984375 
L 18.109375 46.1875 
Q 21.34375 51.125 25.703125 53.5625 
Q 30.078125 56 35.796875 56 
Q 45.21875 56 50.046875 50.171875 
Q 54.890625 44.34375 54.890625 33.015625 
z
" id="DejaVuSans-104"/>
       <path d="M 41.109375 46.296875 
Q 39.59375 47.171875 37.8125 47.578125 
Q 36.03125 48 33.890625 48 
Q 26.265625 48 22.1875 43.046875 
Q 18.109375 38.09375 18.109375 28.8125 
L 18.109375 0 
L 9.078125 0 
L 9.078125 54.6875 
L 18.109375 54.6875 
L 18.109375 46.1875 
Q 20.953125 51.171875 25.484375 53.578125 
Q 30.03125 56 36.53125 56 
Q 37.453125 56 38.578125 55.875 
Q 39.703125 55.765625 41.0625 55.515625 
z
" id="DejaVuSans-114"/>
       <path d="M 44.28125 53.078125 
L 44.28125 44.578125 
Q 40.484375 46.53125 36.375 47.5 
Q 32.28125 48.484375 27.875 48.484375 
Q 21.1875 48.484375 17.84375 46.4375 
Q 14.5 44.390625 14.5 40.28125 
Q 14.5 37.15625 16.890625 35.375 
Q 19.28125 33.59375 26.515625 31.984375 
L 29.59375 31.296875 
Q 39.15625 29.25 43.1875 25.515625 
Q 47.21875 21.78125 47.21875 15.09375 
Q 47.21875 7.46875 41.1875 3.015625 
Q 35.15625 -1.421875 24.609375 -1.421875 
Q 20.21875 -1.421875 15.453125 -0.5625 
Q 10.6875 0.296875 5.421875 2 
L 5.421875 11.28125 
Q 10.40625 8.6875 15.234375 7.390625 
Q 20.0625 6.109375 24.8125 6.109375 
Q 31.15625 6.109375 34.5625 8.28125 
Q 37.984375 10.453125 37.984375 14.40625 
Q 37.984375 18.0625 35.515625 20.015625 
Q 33.0625 21.96875 24.703125 23.78125 
L 21.578125 24.515625 
Q 13.234375 26.265625 9.515625 29.90625 
Q 5.8125 33.546875 5.8125 39.890625 
Q 5.8125 47.609375 11.28125 51.796875 
Q 16.75 56 26.8125 56 
Q 31.78125 56 36.171875 55.265625 
Q 40.578125 54.546875 44.28125 53.078125 
z
" id="DejaVuSans-115"/>
       <path d="M 30.609375 48.390625 
Q 23.390625 48.390625 19.1875 42.75 
Q 14.984375 37.109375 14.984375 27.296875 
Q 14.984375 17.484375 19.15625 11.84375 
Q 23.34375 6.203125 30.609375 6.203125 
Q 37.796875 6.203125 41.984375 11.859375 
Q 46.1875 17.53125 46.1875 27.296875 
Q 46.1875 37.015625 41.984375 42.703125 
Q 37.796875 48.390625 30.609375 48.390625 
z
M 30.609375 56 
Q 42.328125 56 49.015625 48.375 
Q 55.71875 40.765625 55.71875 27.296875 
Q 55.71875 13.875 49.015625 6.21875 
Q 42.328125 -1.421875 30.609375 -1.421875 
Q 18.84375 -1.421875 12.171875 6.21875 
Q 5.515625 13.875 5.515625 27.296875 
Q 5.515625 40.765625 12.171875 48.375 
Q 18.84375 56 30.609375 56 
z
" id="DejaVuSans-111"/>
       <path d="M 45.40625 46.390625 
L 45.40625 75.984375 
L 54.390625 75.984375 
L 54.390625 0 
L 45.40625 0 
L 45.40625 8.203125 
Q 42.578125 3.328125 38.25 0.953125 
Q 33.9375 -1.421875 27.875 -1.421875 
Q 17.96875 -1.421875 11.734375 6.484375 
Q 5.515625 14.40625 5.515625 27.296875 
Q 5.515625 40.1875 11.734375 48.09375 
Q 17.96875 56 27.875 56 
Q 33.9375 56 38.25 53.625 
Q 42.578125 51.265625 45.40625 46.390625 
z
M 14.796875 27.296875 
Q 14.796875 17.390625 18.875 11.75 
Q 22.953125 6.109375 30.078125 6.109375 
Q 37.203125 6.109375 41.296875 11.75 
Q 45.40625 17.390625 45.40625 27.296875 
Q 45.40625 37.203125 41.296875 42.84375 
Q 37.203125 48.484375 30.078125 48.484375 
Q 22.953125 48.484375 18.875 42.84375 
Q 14.796875 37.203125 14.796875 27.296875 
z
" id="DejaVuSans-100"/>
      </defs>
      <use xlink:href="#DejaVuSans-82"/>
      <use x="64.982422" xlink:href="#DejaVuSans-101"/>
      <use x="126.505859" xlink:href="#DejaVuSans-108"/>
      <use x="154.289062" xlink:href="#DejaVuSans-97"/>
      <use x="215.568359" xlink:href="#DejaVuSans-116"/>
      <use x="254.777344" xlink:href="#DejaVuSans-105"/>
      <use x="282.560547" xlink:href="#DejaVuSans-118"/>
      <use x="341.740234" xlink:href="#DejaVuSans-101"/>
      <use x="403.263672" xlink:href="#DejaVuSans-32"/>
      <use x="435.050781" xlink:href="#DejaVuSans-84"/>
      <use x="496.134766" xlink:href="#DejaVuSans-104"/>
      <use x="559.513672" xlink:href="#DejaVuSans-114"/>
      <use x="598.376953" xlink:href="#DejaVuSans-101"/>
      <use x="659.900391" xlink:href="#DejaVuSans-115"/>
      <use x="712" xlink:href="#DejaVuSans-104"/>
      <use x="775.378906" xlink:href="#DejaVuSans-111"/>
      <use x="836.560547" xlink:href="#DejaVuSans-108"/>
      <use x="864.34375" xlink:href="#DejaVuSans-100"/>
     </g>
    </g>
   </g>
   <g id="matplotlib.axis_2">
    <g id="ytick_1">
     <g id="line2d_7">
      <defs>
       <path d="M 0 0 
L -3.5 0 
" id="ma75a5b0b5e" style="stroke:#000000;stroke-width:0.8;"/>
      </defs>
      <g>
       <use style="stroke:#000000;stroke-width:0.8;" x="54" xlink:href="#ma75a5b0b5e" y="235.816204"/>
      </g>
     </g>
     <g id="text_8">
      <!-- $\mathdefault{10^{-2}}$ -->
      <g transform="translate(23.5 239.615423)scale(0.1 -0.1)">
       <defs>
        <path d="M 10.59375 35.5 
L 73.1875 35.5 
L 73.1875 27.203125 
L 10.59375 27.203125 
z
" id="DejaVuSans-8722"/>
       </defs>
       <use transform="translate(0 0.765625)" xlink:href="#DejaVuSans-49"/>
       <use transform="translate(63.623047 0.765625)" xlink:href="#DejaVuSans-48"/>
       <use transform="translate(128.203125 39.046875)scale(0.7)" xlink:href="#DejaVuSans-8722"/>
       <use transform="translate(186.855469 39.046875)scale(0.7)" xlink:href="#DejaVuSans-50"/>
      </g>
     </g>
    </g>
    <g id="ytick_2">
     <g id="line2d_8">
      <g>
       <use style="stroke:#000000;stroke-width:0.8;" x="54" xlink:href="#ma75a5b0b5e" y="132.020756"/>
      </g>
     </g>
     <g id="text_9">
      <!-- $\mathdefault{10^{-1}}$ -->
      <g transform="translate(23.5 135.819974)scale(0.1 -0.1)">
       <use transform="translate(0 0.684375)" xlink:href="#DejaVuSans-49"/>
       <use transform="translate(63.623047 0.684375)" xlink:href="#DejaVuSans-48"/>
       <use transform="translate(128.203125 38.965625)scale(0.7)" xlink:href="#DejaVuSans-8722"/>
       <use transform="translate(186.855469 38.965625)scale(0.7)" xlink:href="#DejaVuSans-49"/>
      </g>
     </g>
    </g>
    <g id="ytick_3">
     <g id="line2d_9">
      <defs>
       <path d="M 0 0 
L -2 0 
" id="mccd0b48874" style="stroke:#000000;stroke-width:0.6;"/>
      </defs>
      <g>
       <use style="stroke:#000000;stroke-width:0.6;" x="54" xlink:href="#mccd0b48874" y="251.894322"/>
      </g>
     </g>
    </g>
    <g id="ytick_4">
     <g id="line2d_10">
      <g>
       <use style="stroke:#000000;stroke-width:0.6;" x="54" xlink:href="#mccd0b48874" y="245.875022"/>
      </g>
     </g>
    </g>
    <g id="ytick_5">
     <g id="line2d_11">
      <g>
       <use style="stroke:#000000;stroke-width:0.6;" x="54" xlink:href="#mccd0b48874" y="240.565623"/>
      </g>
     </g>
    </g>
    <g id="ytick_6">
     <g id="line2d_12">
      <g>
       <use style="stroke:#000000;stroke-width:0.6;" x="54" xlink:href="#mccd0b48874" y="204.570661"/>
      </g>
     </g>
    </g>
    <g id="ytick_7">
     <g id="line2d_13">
      <g>
       <use style="stroke:#000000;stroke-width:0.6;" x="54" xlink:href="#mccd0b48874" y="186.293189"/>
      </g>
     </g>
    </g>
    <g id="ytick_8">
     <g id="line2d_14">
      <g>
       <use style="stroke:#000000;stroke-width:0.6;" x="54" xlink:href="#mccd0b48874" y="173.325117"/>
      </g>
     </g>
    </g>
    <g id="ytick_9">
     <g id="line2d_15">
      <g>
       <use style="stroke:#000000;stroke-width:0.6;" x="54" xlink:href="#mccd0b48874" y="163.266299"/>
      </g>
     </g>
    </g>
    <g id="ytick_10">
     <g id="line2d_16">
      <g>
       <use style="stroke:#000000;stroke-width:0.6;" x="54" xlink:href="#mccd0b48874" y="155.047646"/>
      </g>
     </g>
    </g>
    <g id="ytick_11">
     <g id="line2d_17">
      <g>
       <use style="stroke:#000000;stroke-width:0.6;" x="54" xlink:href="#mccd0b48874" y="148.098874"/>
      </g>
     </g>
    </g>
    <g id="ytick_12">
     <g id="line2d_18">
      <g>
       <use style="stroke:#000000;stroke-width:0.6;" x="54" xlink:href="#mccd0b48874" y="142.079574"/>
      </g>
     </g>
    </g>
    <g id="ytick_13">
     <g id="line2d_19">
      <g>
       <use style="stroke:#000000;stroke-width:0.6;" x="54" xlink:href="#mccd0b48874" y="136.770175"/>
      </g>
     </g>
    </g>
    <g id="ytick_14">
     <g id="line2d_20">
      <g>
       <use style="stroke:#000000;stroke-width:0.6;" x="54" xlink:href="#mccd0b48874" y="100.775212"/>
      </g>
     </g>
    </g>
    <g id="ytick_15">
     <g id="line2d_21">
      <g>
       <use style="stroke:#000000;stroke-width:0.6;" x="54" xlink:href="#mccd0b48874" y="82.497741"/>
      </g>
     </g>
    </g>
    <g id="ytick_16">
     <g id="line2d_22">
      <g>
       <use style="stroke:#000000;stroke-width:0.6;" x="54" xlink:href="#mccd0b48874" y="69.529669"/>
      </g>
     </g>
    </g>
    <g id="ytick_17">
     <g id="line2d_23">
      <g>
       <use style="stroke:#000000;stroke-width:0.6;" x="54" xlink:href="#mccd0b48874" y="59.47085"/>
      </g>
     </g>
    </g>
    <g id="ytick_18">
     <g id="line2d_24">
      <g>
       <use style="stroke:#000000;stroke-width:0.6;" x="54" xlink:href="#mccd0b48874" y="51.252197"/>
      </g>
     </g>
    </g>
    <g id="ytick_19">
     <g id="line2d_25">
      <g>
       <use style="stroke:#000000;stroke-width:0.6;" x="54" xlink:href="#mccd0b48874" y="44.303425"/>
      </g>
     </g>
    </g>
    <g id="ytick_20">
     <g id="line2d_26">
      <g>
       <use style="stroke:#000000;stroke-width:0.6;" x="54" xlink:href="#mccd0b48874" y="38.284125"/>
      </g>
     </g>
    </g>
    <g id="text_10">
     <!-- error rate -->
     <g transform="translate(17.420312 167.127656)rotate(-90)scale(0.1 -0.1)">
      <use xlink:href="#DejaVuSans-101"/>
      <use x="61.523438" xlink:href="#DejaVuSans-114"/>
      <use x="100.886719" xlink:href="#DejaVuSans-114"/>
      <use x="139.75" xlink:href="#DejaVuSans-111"/>
      <use x="200.931641" xlink:href="#DejaVuSans-114"/>
      <use x="242.044922" xlink:href="#DejaVuSans-32"/>
      <use x="273.832031" xlink:href="#DejaVuSans-114"/>
      <use x="314.945312" xlink:href="#DejaVuSans-97"/>
      <use x="376.224609" xlink:href="#DejaVuSans-116"/>
      <use x="415.433594" xlink:href="#DejaVuSans-101"/>
     </g>
    </g>
   </g>
   <g id="line2d_27">
    <path clip-path="url(#pe973860cd1)" d="M 69.218182 44.725373 
L 70.31411 44.725373 
L 70.43588 44.584285 
L 73.601895 44.584285 
L 73.723665 44.725373 
L 75.428442 44.725373 
L 75.550212 44.584285 
L 79.020651 44.584285 
L 79.142421 44.443636 
L 79.99481 44.443636 
L 80.11658 44.584285 
L 80.908083 44.584285 
L 81.029853 44.443636 
L 82.064897 44.443636 
L 82.186666 44.584285 
L 82.795515 44.584285 
L 82.917285 44.725373 
L 83.404365 44.725373 
L 83.526134 44.866905 
L 85.170027 44.866905 
L 85.291797 45.008883 
L 86.144185 45.008883 
L 86.265955 45.151309 
L 86.387725 45.151309 
L 86.509495 45.294186 
L 89.55374 45.294186 
L 89.736395 45.581307 
L 90.162589 45.581307 
L 90.223474 45.725556 
L 90.345244 45.581307 
L 90.467013 45.581307 
L 90.588783 45.725556 
L 90.649668 45.725556 
L 90.832323 46.015446 
L 92.110906 46.015446 
L 92.232676 46.161093 
L 93.206834 46.161093 
L 93.450374 46.60088 
L 95.033381 46.60088 
L 95.155151 46.748434 
L 95.398691 46.748434 
L 95.581345 47.343529 
L 96.738159 47.343529 
L 96.859928 47.493539 
L 97.042583 47.493539 
L 97.164353 47.644049 
L 97.407892 47.644049 
L 97.529662 47.946586 
L 97.651432 47.946586 
L 97.834087 48.251167 
L 98.260281 48.251167 
L 98.382051 48.404232 
L 98.503821 48.404232 
L 98.625591 48.557819 
L 98.74736 48.557819 
L 98.86913 48.711932 
L 99.356209 48.711932 
L 99.477979 48.866573 
L 99.599749 48.866573 
L 99.721519 49.021746 
L 99.904174 49.021746 
L 100.025943 49.177455 
L 101.121872 49.177455 
L 101.243641 49.333704 
L 101.304526 49.333704 
L 101.426296 49.647836 
L 101.85249 49.647836 
L 102.035145 49.964173 
L 102.400455 49.964173 
L 102.522224 50.123178 
L 102.583109 50.123178 
L 102.765764 50.44288 
L 102.887534 50.44288 
L 103.070189 50.764865 
L 103.252843 50.764865 
L 103.374613 50.926725 
L 103.496383 50.926725 
L 103.739923 51.415819 
L 104.227002 51.415819 
L 104.348772 51.580037 
L 104.470541 51.580037 
L 105.505585 54.117919 
L 105.810009 54.117919 
L 105.992664 54.467361 
L 106.053549 54.467361 
L 106.297089 54.996656 
L 106.479743 54.996656 
L 106.601513 55.174478 
L 106.784168 55.174478 
L 106.905938 55.353004 
L 107.027707 55.353004 
L 107.088592 55.53224 
L 107.149477 55.353004 
L 107.332132 56.074264 
L 107.393017 56.074264 
L 107.575671 56.439269 
L 108.184521 56.439269 
L 108.30629 56.622885 
L 108.732485 56.622885 
L 108.915139 56.992377 
L 108.976024 56.992377 
L 109.097794 57.178265 
L 109.158679 57.178265 
L 109.523988 58.119381 
L 109.645758 58.119381 
L 109.889298 58.693628 
L 110.193722 58.693628 
L 110.315492 58.886681 
L 110.559032 58.886681 
L 110.741687 59.275285 
L 110.924341 59.275285 
L 111.65496 61.270203 
L 111.77673 61.270203 
L 111.8985 61.88631 
L 112.202924 61.88631 
L 112.385579 62.721108 
L 112.507349 63.144376 
L 112.629119 63.144376 
L 112.750888 63.35751 
L 112.933543 63.35751 
L 113.055313 63.571657 
L 113.116198 63.571657 
L 113.359737 64.22027 
L 113.542392 64.22027 
L 113.785932 65.322471 
L 114.090356 65.322471 
L 114.212126 65.546183 
L 114.820975 65.546183 
L 115.186285 66.681703 
L 115.308054 66.681703 
L 115.551594 67.377004 
L 115.612479 67.377004 
L 115.734249 67.611175 
L 116.343098 67.611175 
L 116.464868 67.846569 
L 116.647522 67.846569 
L 116.830177 68.321076 
L 116.891062 68.321076 
L 117.012832 68.560216 
L 117.804335 68.560216 
L 117.926105 68.800632 
L 118.23053 68.800632 
L 118.413184 69.285344 
L 118.534954 69.285344 
L 118.656724 69.529669 
L 119.630883 69.529669 
L 119.752652 69.775325 
L 120.605041 69.775325 
L 120.726811 70.022327 
L 121.33566 70.022327 
L 121.518315 70.520429 
L 121.640084 70.27069 
L 121.822739 70.77156 
L 122.066279 70.77156 
L 122.188049 71.024097 
L 122.431588 71.024097 
L 123.040437 73.097004 
L 123.466632 73.097004 
L 123.588401 73.362951 
L 123.771056 73.362951 
L 123.892826 73.899597 
L 124.258135 73.899597 
L 124.379905 74.170336 
L 124.44079 74.170336 
L 124.623445 74.71674 
L 124.68433 74.71674 
L 124.806099 74.992446 
L 124.927869 74.992446 
L 125.049639 75.269848 
L 125.232294 75.269848 
L 125.475833 76.112449 
L 125.658488 76.112449 
L 125.780258 76.396852 
L 126.084682 76.396852 
L 126.145567 76.683061 
L 126.267337 76.396852 
L 126.510877 77.260989 
L 126.997956 77.260989 
L 127.180611 77.846423 
L 127.606805 77.846423 
L 127.850345 78.739082 
L 128.337424 78.739082 
L 128.580963 79.649776 
L 128.641848 79.649776 
L 128.824503 80.579247 
L 128.885388 80.579247 
L 129.068043 81.209716 
L 129.128928 81.209716 
L 129.250697 81.528289 
L 129.311582 81.528289 
L 129.433352 81.209716 
L 129.555122 81.209716 
L 129.676892 81.528289 
L 129.798662 81.528289 
L 129.920431 81.849128 
L 130.163971 81.849128 
L 130.224856 82.172268 
L 130.346626 81.849128 
L 130.711935 81.849128 
L 130.89459 82.497741 
L 131.01636 82.497741 
L 131.138129 82.825581 
L 131.320784 82.825581 
L 131.442554 83.155823 
L 131.686094 83.155823 
L 131.807863 83.488501 
L 131.929633 83.488501 
L 132.051403 83.823654 
L 132.112288 83.823654 
L 132.294943 84.501528 
L 132.721137 84.501528 
L 132.782022 84.844327 
L 132.903792 84.501528 
L 133.512641 84.501528 
L 133.695295 85.189752 
L 134.304144 85.189752 
L 134.730339 87.319808 
L 135.034763 87.319808 
L 135.156533 88.052796 
L 135.704497 88.052796 
L 135.826267 88.423809 
L 136.191576 88.423809 
L 136.313346 88.7979 
L 136.617771 88.7979 
L 136.739541 89.175123 
L 136.922195 89.175123 
L 137.043965 89.555528 
L 137.34839 89.555528 
L 137.470159 89.939171 
L 137.531044 89.939171 
L 137.591929 89.555528 
L 137.835469 90.716394 
L 138.261663 90.716394 
L 138.383433 91.110089 
L 139.114052 91.110089 
L 139.235822 91.507253 
L 139.662016 91.507253 
L 139.844671 92.312234 
L 139.966441 92.312234 
L 140.08821 92.720181 
L 141.062369 92.720181 
L 141.184139 93.131853 
L 141.610333 93.131853 
L 141.732103 93.54732 
L 142.158297 93.54732 
L 142.584491 96.123895 
L 143.31511 96.123895 
L 143.43688 96.568014 
L 143.923959 96.568014 
L 144.045729 97.016553 
L 144.411039 97.016553 
L 144.593693 97.927247 
L 144.776348 97.927247 
L 144.898118 97.4696 
L 144.959003 97.4696 
L 145.080773 97.927247 
L 145.202542 97.927247 
L 145.324312 98.389587 
L 145.385197 98.389587 
L 145.506967 98.856719 
L 146.298471 98.856719 
L 146.42024 99.328742 
L 146.481125 99.328742 
L 146.724665 100.775212 
L 147.455284 100.775212 
L 147.577054 101.26787 
L 148.855637 101.26787 
L 148.977406 101.765973 
L 149.281831 101.765973 
L 149.403601 102.26964 
L 150.803954 102.26964 
L 150.925723 102.778999 
L 151.047493 102.778999 
L 151.169263 103.29418 
L 152.630501 103.29418 
L 152.813155 104.876019 
L 152.934925 105.415879 
L 155.674746 105.415879 
L 155.796516 104.876019 
L 155.857401 104.876019 
L 155.97917 105.415879 
L 156.527135 105.415879 
L 156.709789 106.515392 
L 156.953329 106.515392 
L 157.075099 107.075372 
L 157.562178 107.075372 
L 157.683948 107.642395 
L 158.536336 107.642395 
L 158.658106 107.075372 
L 158.779876 107.642395 
L 158.962531 107.642395 
L 159.0843 108.216643 
L 159.20607 108.216643 
L 159.32784 108.798299 
L 161.641466 108.798299 
L 161.763236 108.216643 
L 162.250316 108.216643 
L 162.372085 108.798299 
L 163.102704 108.798299 
L 163.346244 110.589706 
L 164.624827 110.589706 
L 164.746597 111.203018 
L 165.355446 111.203018 
L 165.477215 111.824791 
L 167.181993 111.824791 
L 167.303763 111.203018 
L 167.364647 111.203018 
L 167.486417 111.824791 
L 167.547302 111.824791 
L 167.669072 112.45526 
L 169.921813 112.45526 
L 170.043583 111.824791 
L 170.530662 111.824791 
L 170.652432 112.45526 
L 170.835087 112.45526 
L 170.956857 113.094672 
L 171.017742 113.094672 
L 171.139512 112.45526 
L 171.9919 112.45526 
L 172.11367 113.094672 
L 174.975261 113.094672 
L 175.09703 113.743284 
L 175.46234 113.743284 
L 175.58411 114.401366 
L 176.010304 114.401366 
L 176.132074 113.743284 
L 176.192959 114.401366 
L 176.314728 113.743284 
L 177.593311 113.743284 
L 177.715081 114.401366 
L 177.775966 114.401366 
L 177.897736 113.743284 
L 179.419859 113.743284 
L 179.602513 115.069197 
L 183.986226 115.069197 
L 184.107996 115.747072 
L 187.334896 115.747072 
L 187.456666 116.435295 
L 187.700205 116.435295 
L 187.821975 117.844091 
L 187.943745 117.844091 
L 188.065515 117.13419 
L 188.24817 117.13419 
L 188.369939 117.844091 
L 189.100558 117.844091 
L 189.222328 118.565351 
L 190.866221 118.565351 
L 190.98799 119.298339 
L 191.23153 119.298339 
L 191.3533 118.565351 
L 191.47507 118.565351 
L 191.596839 119.298339 
L 192.083919 119.298339 
L 192.205688 120.801072 
L 194.21489 120.801072 
L 194.33666 120.043444 
L 194.5802 120.043444 
L 194.701969 119.298339 
L 194.762854 119.298339 
L 194.884624 120.043444 
L 195.006394 119.298339 
L 195.432588 119.298339 
L 195.554358 120.043444 
L 196.893826 120.043444 
L 197.015596 120.801072 
L 197.198251 120.801072 
L 197.32002 121.571651 
L 197.380905 121.571651 
L 197.502675 122.355632 
L 200.364266 122.355632 
L 200.486035 121.571651 
L 200.66869 121.571651 
L 200.79046 122.355632 
L 201.825503 122.355632 
L 201.947273 121.571651 
L 202.860547 121.571651 
L 202.982316 122.355632 
L 204.01736 122.355632 
L 204.13913 121.571651 
L 205.661252 121.571651 
L 205.783022 122.355632 
L 207.853109 122.355632 
L 207.974879 121.571651 
L 211.019124 121.571651 
L 211.140894 122.355632 
L 211.871512 122.355632 
L 211.993282 123.15349 
L 213.880714 123.15349 
L 214.002484 123.965724 
L 215.707261 123.965724 
L 215.829031 124.792863 
L 216.072571 124.792863 
L 216.194341 123.965724 
L 217.960003 123.965724 
L 218.081773 124.792863 
L 218.203543 123.965724 
L 220.395399 123.965724 
L 220.517169 124.792863 
L 222.648141 124.792863 
L 222.76991 125.635463 
L 223.500529 125.635463 
L 223.622299 124.792863 
L 228.553976 124.792863 
L 228.675746 123.965724 
L 230.928488 123.965724 
L 231.050257 123.15349 
L 233.546538 123.15349 
L 233.668308 123.965724 
L 236.529899 123.965724 
L 236.651669 124.792863 
L 238.78264 124.792863 
L 238.90441 125.635463 
L 239.391489 125.635463 
L 239.513259 126.494114 
L 239.756799 126.494114 
L 239.878568 127.369438 
L 240.548302 127.369438 
L 240.670072 125.635463 
L 242.618389 125.635463 
L 242.740159 126.494114 
L 243.166353 126.494114 
L 243.288123 127.369438 
L 244.201397 127.369438 
L 244.323166 126.494114 
L 247.976261 126.494114 
L 248.098031 127.369438 
L 248.46334 127.369438 
L 248.58511 126.494114 
L 250.472542 126.494114 
L 250.594312 127.369438 
L 250.716081 127.369438 
L 250.837851 128.262097 
L 251.385815 128.262097 
L 251.507585 129.17279 
L 251.751125 129.17279 
L 251.872895 128.262097 
L 257.230766 128.262097 
L 257.352536 129.17279 
L 259.422623 129.17279 
L 259.544393 128.262097 
L 259.605277 128.262097 
L 259.727047 127.369438 
L 267.824739 127.369438 
L 267.946509 128.262097 
L 268.311819 128.262097 
L 268.433589 127.369438 
L 272.573762 127.369438 
L 272.695532 126.494114 
L 283.411275 126.494114 
L 283.533045 125.635463 
L 286.881715 125.635463 
L 287.003484 124.792863 
L 290.291269 124.792863 
L 290.413039 123.965724 
L 291.874277 123.965724 
L 291.996046 123.15349 
L 300.276393 123.15349 
L 300.398163 123.965724 
L 312.636029 123.965724 
L 312.757799 123.15349 
L 315.619389 123.15349 
L 315.741159 123.965724 
L 316.958857 123.965724 
L 317.080627 123.15349 
L 323.169117 123.15349 
L 323.290887 123.965724 
L 337.172645 123.965724 
L 337.294415 123.15349 
L 345.270338 123.15349 
L 345.392108 122.355632 
L 373.581818 122.355632 
L 373.581818 122.355632 
" style="fill:none;stroke:#1f77b4;stroke-linecap:square;stroke-width:1.5;"/>
   </g>
   <g id="line2d_28">
    <path clip-path="url(#pe973860cd1)" d="M 69.218182 99.80576 
L 70.253225 99.80576 
L 70.374995 100.28788 
L 70.43588 100.28788 
L 70.55765 100.775212 
L 70.922959 100.775212 
L 71.044729 101.26787 
L 71.105614 101.26787 
L 71.349153 102.778999 
L 71.714463 102.778999 
L 71.958003 104.342548 
L 72.323312 104.342548 
L 72.445082 104.876019 
L 72.810391 104.876019 
L 72.932161 105.415879 
L 72.993046 105.415879 
L 73.29747 107.642395 
L 73.358355 107.642395 
L 73.54101 108.798299 
L 73.601895 108.798299 
L 73.723665 109.38756 
L 74.149859 109.38756 
L 74.393399 111.203018 
L 74.454284 111.203018 
L 74.941363 115.069197 
L 75.489327 115.069197 
L 75.611097 115.747072 
L 75.732867 115.747072 
L 75.854636 116.435295 
L 75.976406 116.435295 
L 76.280831 119.298339 
L 76.88968 119.298339 
L 77.01145 120.043444 
L 77.437644 120.043444 
L 77.559414 120.801072 
L 78.168263 120.801072 
L 78.290033 121.571651 
L 78.472687 121.571651 
L 78.655342 124.792863 
L 78.716227 124.792863 
L 78.837997 125.635463 
L 79.385961 125.635463 
L 79.507731 126.494114 
L 79.6295 126.494114 
L 79.812155 128.262097 
L 80.542774 128.262097 
L 80.664544 129.17279 
L 80.786314 129.17279 
L 80.908083 131.051303 
L 81.090738 131.051303 
L 81.273393 133.011516 
L 81.699587 133.011516 
L 81.821357 134.024543 
L 82.186666 134.024543 
L 82.308436 135.060859 
L 82.369321 135.060859 
L 82.491091 136.121562 
L 82.734631 136.121562 
L 82.8564 138.320915 
L 82.97817 138.320915 
L 83.09994 139.462186 
L 83.587019 139.462186 
L 83.708789 140.633103 
L 83.952329 140.633103 
L 84.074098 141.835249 
L 84.682947 141.835249 
L 84.865602 145.646909 
L 85.900646 145.646909 
L 86.0833 148.379733 
L 86.935689 148.379733 
L 87.057459 149.810895 
L 87.422768 149.810895 
L 87.544538 151.288987 
L 87.909847 151.288987 
L 88.031617 152.817194 
L 88.153387 152.817194 
L 88.275157 154.399034 
L 88.640466 154.399034 
L 88.762236 156.038407 
L 88.944891 156.038407 
L 89.066661 157.739657 
L 90.101704 157.739657 
L 90.223474 159.50764 
L 91.502057 159.50764 
L 91.623827 161.347806 
L 91.745596 161.347806 
L 91.867366 163.266299 
L 92.41533 163.266299 
L 92.5371 161.347806 
L 93.511259 161.347806 
L 93.633028 163.266299 
L 93.693913 163.266299 
L 93.876568 167.367106 
L 94.485417 167.367106 
L 94.668072 171.878647 
L 95.276921 171.878647 
L 95.398691 174.315878 
L 96.859928 174.315878 
L 96.981698 176.892453 
L 97.225238 176.892453 
L 97.347008 179.625277 
L 98.686475 179.625277 
L 98.808245 182.534531 
L 100.208598 182.534531 
L 100.330368 185.644577 
L 100.391253 185.644577 
L 100.513023 182.534531 
L 100.878332 182.534531 
L 101.000102 179.625277 
L 101.426296 179.625277 
L 101.548066 176.892453 
L 102.704879 176.892453 
L 102.826649 179.625277 
L 103.131073 179.625277 
L 103.252843 182.534531 
L 103.435498 182.534531 
L 103.557268 185.644577 
L 104.105232 185.644577 
L 104.227002 188.985201 
L 104.653196 188.985201 
L 104.774966 185.644577 
L 106.601513 185.644577 
L 106.723283 182.534531 
L 107.636556 182.534531 
L 107.758326 185.644577 
L 108.6716 185.644577 
L 108.854254 179.625277 
L 109.523988 179.625277 
L 109.645758 182.534531 
L 109.706643 182.534531 
L 109.828413 179.625277 
L 111.41142 179.625277 
L 111.53319 182.534531 
L 118.10876 182.534531 
L 118.23053 176.892453 
L 118.3523 176.892453 
L 118.474069 174.315878 
L 120.057077 174.315878 
L 120.178847 171.878647 
L 120.361501 171.878647 
L 120.483271 169.566459 
L 120.605041 169.566459 
L 120.726811 167.367106 
L 121.45743 167.367106 
L 121.640084 171.878647 
L 122.614243 171.878647 
L 122.736013 169.566459 
L 123.466632 169.566459 
L 123.588401 167.367106 
L 123.710171 167.367106 
L 123.831941 169.566459 
L 124.19725 169.566459 
L 124.31902 167.367106 
L 124.866984 167.367106 
L 124.988754 165.270086 
L 125.110524 165.270086 
L 125.232294 163.266299 
L 127.972114 163.266299 
L 128.093884 165.270086 
L 128.702733 165.270086 
L 128.824503 163.266299 
L 129.555122 163.266299 
L 129.676892 165.270086 
L 129.737777 165.270086 
L 129.859546 163.266299 
L 130.833705 163.266299 
L 130.955475 161.347806 
L 131.077245 161.347806 
L 131.199014 159.50764 
L 132.173173 159.50764 
L 132.294943 157.739657 
L 132.599367 157.739657 
L 132.721137 156.038407 
L 134.730339 156.038407 
L 134.852109 154.399034 
L 135.887152 154.399034 
L 136.008922 152.817194 
L 136.556886 152.817194 
L 136.678656 151.288987 
L 137.165735 151.288987 
L 137.287505 149.810895 
L 137.409275 149.810895 
L 137.531044 148.379733 
L 137.896354 148.379733 
L 138.018124 146.992615 
L 138.687858 146.992615 
L 138.809627 145.646909 
L 139.844671 145.646909 
L 139.966441 144.340215 
L 140.940599 144.340215 
L 141.062369 143.070334 
L 141.549448 143.070334 
L 141.671218 141.835249 
L 141.853873 141.835249 
L 141.975642 140.633103 
L 142.462722 140.633103 
L 142.584491 139.462186 
L 143.375995 139.462186 
L 143.497765 138.320915 
L 143.80219 138.320915 
L 143.923959 137.207827 
L 144.471923 137.207827 
L 144.593693 136.121562 
L 145.446082 136.121562 
L 145.567852 135.060859 
L 145.811391 135.060859 
L 145.933161 134.024543 
L 147.577054 134.024543 
L 147.759708 132.020756 
L 147.881478 132.020756 
L 148.003248 131.051303 
L 148.733867 131.051303 
L 148.855637 130.102262 
L 149.403601 130.102262 
L 149.525371 129.17279 
L 150.316874 129.17279 
L 150.499529 127.369438 
L 150.682184 127.369438 
L 150.803954 126.494114 
L 151.351918 126.494114 
L 151.473687 125.635463 
L 151.595457 125.635463 
L 151.717227 124.792863 
L 152.021652 124.792863 
L 152.143421 123.15349 
L 152.99581 123.15349 
L 153.178465 121.571651 
L 153.361119 121.571651 
L 153.604659 119.298339 
L 154.030853 119.298339 
L 154.152623 118.565351 
L 154.396163 118.565351 
L 154.517933 117.844091 
L 155.97917 117.844091 
L 156.10094 117.13419 
L 158.231912 117.13419 
L 158.414567 115.747072 
L 158.536336 115.747072 
L 158.658106 115.069197 
L 158.779876 115.069197 
L 158.962531 113.743284 
L 159.20607 113.743284 
L 159.32784 113.094672 
L 159.510495 113.094672 
L 159.632265 112.45526 
L 159.814919 112.45526 
L 159.997574 109.984626 
L 160.180229 108.798299 
L 160.362883 108.798299 
L 160.484653 107.642395 
L 161.215272 107.642395 
L 161.397927 106.515392 
L 161.580582 106.515392 
L 161.763236 105.415879 
L 164.137748 105.415879 
L 164.259517 104.876019 
L 164.320402 104.876019 
L 164.563942 103.29418 
L 164.807481 103.29418 
L 164.929251 102.778999 
L 164.990136 102.778999 
L 165.111906 102.26964 
L 165.842525 102.26964 
L 166.02518 100.775212 
L 166.086064 100.775212 
L 166.207834 100.28788 
L 166.573144 100.28788 
L 166.694914 99.80576 
L 166.816683 99.80576 
L 166.999338 98.856719 
L 167.425532 98.856719 
L 167.608187 97.927247 
L 168.156151 97.927247 
L 168.338806 97.016553 
L 168.460576 97.016553 
L 168.582346 96.568014 
L 168.64323 96.568014 
L 168.765 96.123895 
L 168.825885 96.123895 
L 169.00854 94.817201 
L 169.13031 94.817201 
L 169.25208 94.38992 
L 170.043583 94.38992 
L 170.165353 93.54732 
L 171.017742 93.54732 
L 171.139512 92.720181 
L 171.931015 92.720181 
L 172.052785 91.907947 
L 172.23544 91.907947 
L 172.35721 91.507253 
L 172.539864 91.507253 
L 172.661634 91.110089 
L 172.722519 91.110089 
L 172.844289 90.716394 
L 173.209598 90.716394 
L 173.331368 90.326107 
L 173.392253 90.326107 
L 173.574908 89.555528 
L 173.818447 89.555528 
L 173.940217 89.175123 
L 175.157915 89.175123 
L 175.279685 88.7979 
L 175.644994 88.7979 
L 175.766764 88.423809 
L 176.436498 88.423809 
L 176.558268 88.052796 
L 176.680038 88.052796 
L 177.045347 86.2422 
L 177.228002 86.2422 
L 177.349772 85.888647 
L 178.993664 85.888647 
L 179.237204 84.844327 
L 179.358974 84.844327 
L 179.541628 84.161317 
L 180.637557 84.161317 
L 180.881096 83.155823 
L 181.124636 83.155823 
L 181.246406 82.825581 
L 181.307291 82.825581 
L 181.42906 82.497741 
L 181.489945 82.497741 
L 181.611715 82.172268 
L 181.977024 82.172268 
L 182.098794 81.849128 
L 182.220564 81.849128 
L 182.464104 80.89338 
L 182.768528 80.89338 
L 182.890298 80.579247 
L 183.012068 80.579247 
L 183.194723 79.957475 
L 183.255607 79.957475 
L 183.377377 79.649776 
L 183.986226 79.649776 
L 184.107996 79.344162 
L 184.595075 79.344162 
L 184.716845 79.040607 
L 184.8995 79.040607 
L 185.082155 78.439561 
L 185.203924 78.439561 
L 185.325694 78.142017 
L 185.691004 78.142017 
L 185.812773 77.846423 
L 186.056313 77.846423 
L 186.178083 77.552756 
L 186.299853 77.552756 
L 186.543392 76.683061 
L 187.821975 76.683061 
L 187.943745 76.396852 
L 189.344098 76.396852 
L 189.465868 76.112449 
L 189.526753 76.112449 
L 189.709407 75.548969 
L 190.927105 75.548969 
L 191.048875 75.269848 
L 191.535954 75.269848 
L 191.657724 74.992446 
L 191.718609 74.992446 
L 191.840379 74.71674 
L 192.631883 74.71674 
L 192.753653 74.44271 
L 193.423386 74.44271 
L 193.606041 73.899597 
L 193.666926 73.899597 
L 193.788696 73.630475 
L 193.910466 73.630475 
L 194.032236 73.362951 
L 194.21489 73.362951 
L 194.397545 72.832618 
L 194.641085 72.832618 
L 194.762854 72.569773 
L 194.884624 72.569773 
L 195.067279 72.048636 
L 195.371703 72.048636 
L 195.493473 71.79031 
L 196.041437 71.79031 
L 196.163207 71.533456 
L 196.224092 71.533456 
L 196.345862 71.278057 
L 196.832941 71.278057 
L 196.954711 71.024097 
L 197.015596 71.024097 
L 197.137366 70.77156 
L 197.624445 70.77156 
L 197.746215 70.520429 
L 198.111524 70.520429 
L 198.233294 70.27069 
L 198.476834 70.27069 
L 198.598603 70.022327 
L 198.842143 70.022327 
L 198.963913 69.775325 
L 199.085683 69.775325 
L 199.207452 69.529669 
L 199.268337 69.529669 
L 199.390107 69.285344 
L 199.450992 69.285344 
L 199.572762 69.042336 
L 200.364266 69.042336 
L 200.54692 68.560216 
L 201.460194 68.560216 
L 201.581964 68.321076 
L 201.703733 68.321076 
L 201.886388 67.846569 
L 202.373467 67.846569 
L 202.495237 67.611175 
L 202.556122 67.611175 
L 202.799662 66.912281 
L 203.65205 66.912281 
L 203.834705 66.452299 
L 204.200015 66.452299 
L 204.382669 65.996964 
L 204.687094 65.996964 
L 204.808864 65.77101 
L 205.539482 65.77101 
L 205.661252 65.546183 
L 205.904792 65.546183 
L 206.026562 65.322471 
L 206.513641 65.322471 
L 206.635411 65.099864 
L 206.87895 65.099864 
L 207.00072 64.878351 
L 207.061605 64.878351 
L 207.183375 64.657922 
L 207.24426 64.657922 
L 207.426914 64.003027 
L 207.731339 64.003027 
L 207.853109 63.786826 
L 207.974879 63.786826 
L 208.218418 63.144376 
L 208.401073 63.144376 
L 208.705497 62.301776 
L 209.862311 62.301776 
L 209.98408 62.093564 
L 210.044965 62.093564 
L 210.166735 61.88631 
L 210.34939 61.88631 
L 210.47116 61.680004 
L 210.958239 61.680004 
L 211.080009 61.270203 
L 211.688858 61.270203 
L 211.810628 61.066691 
L 212.054167 61.066691 
L 212.175937 60.864094 
L 212.541246 60.864094 
L 212.723901 60.461611 
L 212.784786 60.461611 
L 212.906556 60.261709 
L 213.089211 60.261709 
L 213.21098 60.06269 
L 213.57629 60.06269 
L 213.69806 59.864545 
L 214.854873 59.864545 
L 214.976643 59.667268 
L 216.31611 59.667268 
L 216.43788 59.47085 
L 216.498765 59.47085 
L 216.620535 59.275285 
L 217.412039 59.275285 
L 217.533809 59.080564 
L 218.203543 59.080564 
L 218.386197 58.693628 
L 218.447082 58.693628 
L 218.568852 58.501398 
L 219.116816 58.501398 
L 219.238586 58.309985 
L 219.360356 58.309985 
L 219.54301 57.740574 
L 219.603895 57.740574 
L 219.725665 57.552357 
L 220.151859 57.552357 
L 220.273629 57.178265 
L 220.395399 57.178265 
L 220.517169 56.992377 
L 220.578054 56.992377 
L 220.760709 56.622885 
L 220.821593 56.622885 
L 220.943363 56.439269 
L 222.161061 56.439269 
L 222.343716 56.074264 
L 222.648141 56.074264 
L 222.76991 55.892864 
L 222.830795 55.892864 
L 222.952565 55.712192 
L 223.01345 55.712192 
L 223.196105 55.353004 
L 223.622299 55.353004 
L 223.744069 55.174478 
L 224.413803 55.174478 
L 224.596457 54.819533 
L 225.022652 54.819533 
L 225.144422 54.643103 
L 225.814156 54.643103 
L 225.935925 54.467361 
L 226.24035 54.467361 
L 226.423005 54.117919 
L 226.605659 54.117919 
L 226.727429 53.944209 
L 226.849199 53.944209 
L 226.970969 53.771165 
L 227.214508 53.771165 
L 227.336278 53.598783 
L 227.701588 53.598783 
L 227.823357 53.427058 
L 228.432206 53.427058 
L 228.553976 53.255985 
L 228.797516 53.255985 
L 228.919286 53.085558 
L 228.980171 53.085558 
L 229.10194 52.915773 
L 229.284595 52.915773 
L 229.46725 52.57811 
L 229.528135 52.57811 
L 229.710789 52.242958 
L 229.954329 52.242958 
L 230.076099 52.076312 
L 231.902646 52.076312 
L 232.024416 51.744856 
L 234.581582 51.744856 
L 234.703352 51.580037 
L 234.825121 51.580037 
L 235.007776 51.252197 
L 236.956093 51.252197 
L 237.077863 51.089167 
L 240.487417 51.089167 
L 240.609187 50.926725 
L 241.948655 50.926725 
L 242.070425 50.764865 
L 242.37485 50.764865 
L 242.496619 50.603585 
L 242.983699 50.603585 
L 243.105468 50.44288 
L 243.592548 50.44288 
L 243.714317 50.282745 
L 244.201397 50.282745 
L 244.323166 50.123178 
L 246.088829 50.123178 
L 246.271483 49.805727 
L 246.393253 49.805727 
L 246.515023 49.490497 
L 246.575908 49.490497 
L 246.697678 49.333704 
L 248.889534 49.333704 
L 249.011304 49.177455 
L 249.985463 49.177455 
L 250.107232 49.021746 
L 250.959621 49.021746 
L 251.081391 48.866573 
L 253.090593 48.866573 
L 253.212362 48.711932 
L 255.03891 48.711932 
L 255.160679 48.557819 
L 255.647759 48.557819 
L 255.769528 48.404232 
L 256.073953 48.404232 
L 256.195723 48.251167 
L 256.987227 48.251167 
L 257.108996 48.098619 
L 258.326694 48.098619 
L 258.448464 47.946586 
L 258.874659 47.946586 
L 258.996428 47.795064 
L 259.057313 47.795064 
L 259.179083 47.644049 
L 260.214126 47.644049 
L 260.335896 47.493539 
L 260.579436 47.493539 
L 260.701206 47.343529 
L 261.553594 47.343529 
L 261.675364 47.194017 
L 261.736249 47.194017 
L 261.858019 47.045 
L 262.649523 47.045 
L 262.771292 46.896473 
L 263.197487 46.896473 
L 263.319257 46.748434 
L 264.963149 46.748434 
L 265.084919 46.60088 
L 266.363502 46.60088 
L 266.485272 46.453807 
L 270.990755 46.453807 
L 271.112524 46.307213 
L 272.817302 46.307213 
L 272.939071 46.161093 
L 273.852345 46.161093 
L 273.974115 46.015446 
L 275.374468 46.015446 
L 275.496237 45.870268 
L 276.957475 45.870268 
L 277.079245 45.725556 
L 279.271101 45.725556 
L 279.392871 45.581307 
L 279.697296 45.581307 
L 279.819066 45.437518 
L 285.359592 45.437518 
L 285.481362 45.294186 
L 288.830031 45.294186 
L 288.951801 45.151309 
L 294.553212 45.151309 
L 294.674982 45.008883 
L 310.139748 45.008883 
L 310.261518 44.866905 
L 313.549303 44.866905 
L 313.671072 44.725373 
L 373.581818 44.725373 
L 373.581818 44.725373 
" style="fill:none;stroke:#ff7f0e;stroke-linecap:square;stroke-width:1.5;"/>
   </g>
   <g id="line2d_29">
    <path clip-path="url(#pe973860cd1)" d="M 69.218182 82.172268 
L 74.697823 82.172268 
L 74.819593 82.497741 
L 77.01145 82.497741 
L 77.133219 82.825581 
L 80.908083 82.825581 
L 81.029853 83.155823 
L 82.369321 83.155823 
L 82.491091 83.488501 
L 82.8564 83.488501 
L 82.97817 83.823654 
L 84.500293 83.823654 
L 84.622063 84.161317 
L 85.170027 84.161317 
L 85.291797 84.501528 
L 85.657106 84.501528 
L 85.778876 103.815316 
L 86.44861 103.815316 
L 86.57038 104.342548 
L 86.692149 104.342548 
L 86.813919 104.876019 
L 91.075862 104.876019 
L 91.197632 105.415879 
L 92.232676 105.415879 
L 92.354445 105.962283 
L 93.328604 105.962283 
L 93.450374 106.515392 
L 96.433734 106.515392 
L 96.555504 107.075372 
L 98.686475 107.075372 
L 98.86913 108.216643 
L 100.025943 108.216643 
L 100.147713 108.798299 
L 100.269483 108.798299 
L 100.391253 109.38756 
L 101.243641 109.38756 
L 101.365411 109.984626 
L 102.33957 109.984626 
L 102.46134 110.589706 
L 103.070189 110.589706 
L 103.191958 111.203018 
L 104.348772 111.203018 
L 104.470541 111.824791 
L 105.32293 111.824791 
L 105.4447 112.45526 
L 105.870894 112.45526 
L 105.992664 113.094672 
L 107.088592 113.094672 
L 107.271247 114.401366 
L 108.367175 114.401366 
L 108.488945 115.069197 
L 109.402219 115.069197 
L 109.523988 115.747072 
L 109.584873 115.747072 
L 109.706643 116.435295 
L 110.315492 116.435295 
L 110.559032 118.565351 
L 110.741687 118.565351 
L 110.863456 119.298339 
L 111.046111 119.298339 
L 111.167881 120.043444 
L 111.472305 120.043444 
L 111.65496 122.355632 
L 111.77673 122.355632 
L 111.8985 123.15349 
L 112.507349 123.15349 
L 112.690003 124.792863 
L 112.994428 124.792863 
L 113.116198 125.635463 
L 113.298852 125.635463 
L 113.420622 126.494114 
L 114.090356 126.494114 
L 114.212126 127.369438 
L 114.394781 127.369438 
L 114.577435 129.17279 
L 116.769292 129.17279 
L 116.891062 130.102262 
L 118.291415 130.102262 
L 118.413184 131.051303 
L 119.813537 131.051303 
L 119.935307 132.020756 
L 120.361501 132.020756 
L 120.483271 133.011516 
L 120.909466 133.011516 
L 121.031235 134.024543 
L 122.675128 134.024543 
L 122.857782 136.121562 
L 123.101322 136.121562 
L 123.223092 137.207827 
L 123.588401 137.207827 
L 123.710171 138.320915 
L 123.831941 138.320915 
L 124.014596 140.633103 
L 124.19725 140.633103 
L 124.31902 141.835249 
L 124.501675 141.835249 
L 124.623445 143.070334 
L 126.510877 143.070334 
L 126.632647 144.340215 
L 126.937071 144.340215 
L 127.058841 145.646909 
L 127.850345 145.646909 
L 127.972114 146.992615 
L 128.520079 146.992615 
L 128.641848 149.810895 
L 129.189813 149.810895 
L 129.311582 151.288987 
L 129.737777 151.288987 
L 129.859546 149.810895 
L 129.920431 149.810895 
L 130.042201 151.288987 
L 130.52928 151.288987 
L 130.65105 152.817194 
L 131.320784 152.817194 
L 131.503439 156.038407 
L 131.625209 156.038407 
L 131.746978 154.399034 
L 133.938835 154.399034 
L 134.060605 156.038407 
L 134.304144 156.038407 
L 134.425914 157.739657 
L 134.547684 157.739657 
L 134.669454 159.50764 
L 136.922195 159.50764 
L 137.043965 161.347806 
L 137.287505 161.347806 
L 137.409275 163.266299 
L 137.774584 163.266299 
L 137.957239 167.367106 
L 138.079009 167.367106 
L 138.200778 169.566459 
L 138.505203 169.566459 
L 138.626973 171.878647 
L 138.687858 171.878647 
L 138.870512 176.892453 
L 140.940599 176.892453 
L 141.062369 179.625277 
L 141.427678 179.625277 
L 141.610333 185.644577 
L 141.732103 185.644577 
L 141.914757 192.593349 
L 142.280067 192.593349 
L 142.401837 196.51563 
L 142.584491 196.51563 
L 142.706261 192.593349 
L 142.949801 192.593349 
L 143.071571 196.51563 
L 143.254225 196.51563 
L 143.55865 210.87082 
L 145.446082 210.87082 
L 145.567852 216.89012 
L 146.846435 216.89012 
L 146.968205 210.87082 
L 148.307672 210.87082 
L 148.429442 216.89012 
L 148.794752 216.89012 
L 148.916521 223.838892 
L 149.160061 223.838892 
L 149.281831 232.057545 
L 151.656342 232.057545 
L 151.778112 242.116364 
L 155.370321 242.116364 
L 155.492091 232.057545 
L 161.458812 232.057545 
L 161.580582 223.838892 
L 163.650668 223.838892 
L 163.772438 216.89012 
L 164.381287 216.89012 
L 164.503057 210.87082 
L 164.868366 210.87082 
L 164.990136 205.561421 
L 170.713317 205.561421 
L 170.835087 200.812002 
L 171.139512 200.812002 
L 171.261281 196.51563 
L 171.565706 196.51563 
L 171.687476 192.593349 
L 172.11367 192.593349 
L 172.23544 188.985201 
L 172.418095 188.985201 
L 172.539864 185.644577 
L 173.026944 185.644577 
L 173.148713 182.534531 
L 177.532426 182.534531 
L 177.654196 179.625277 
L 179.419859 179.625277 
L 179.541628 176.892453 
L 179.846053 176.892453 
L 179.967823 174.315878 
L 181.55083 174.315878 
L 181.6726 171.878647 
L 182.585874 171.878647 
L 182.707643 167.367106 
L 183.864457 167.367106 
L 183.986226 165.270086 
L 185.02127 165.270086 
L 185.14304 163.266299 
L 186.056313 163.266299 
L 186.178083 161.347806 
L 186.908702 161.347806 
L 187.030472 159.50764 
L 189.222328 159.50764 
L 189.344098 157.739657 
L 189.770292 157.739657 
L 189.892062 156.038407 
L 190.135602 156.038407 
L 190.257371 154.399034 
L 190.744451 154.399034 
L 190.866221 152.817194 
L 191.840379 152.817194 
L 192.023034 149.810895 
L 192.997192 149.810895 
L 193.118962 148.379733 
L 193.240732 148.379733 
L 193.362502 146.992615 
L 194.5802 146.992615 
L 194.701969 145.646909 
L 196.954711 145.646909 
L 197.137366 143.070334 
L 197.44179 143.070334 
L 197.56356 141.835249 
L 197.68533 141.835249 
L 197.8071 140.633103 
L 197.928869 140.633103 
L 198.111524 138.320915 
L 198.659488 138.320915 
L 198.781258 137.207827 
L 200.486035 137.207827 
L 200.607805 136.121562 
L 200.851345 136.121562 
L 200.973115 135.060859 
L 201.155769 135.060859 
L 201.277539 134.024543 
L 202.129928 134.024543 
L 202.251698 133.011516 
L 202.617007 133.011516 
L 202.738777 132.020756 
L 203.043201 132.020756 
L 203.164971 131.051303 
L 203.89559 131.051303 
L 204.078245 129.17279 
L 205.417713 129.17279 
L 205.539482 128.262097 
L 205.661252 128.262097 
L 205.783022 127.369438 
L 206.026562 127.369438 
L 206.148331 126.494114 
L 206.513641 126.494114 
L 206.635411 125.635463 
L 206.939835 125.635463 
L 207.061605 124.792863 
L 207.974879 124.792863 
L 208.096648 123.965724 
L 208.705497 123.965724 
L 208.827267 123.15349 
L 209.679656 123.15349 
L 209.801426 121.571651 
L 210.10585 121.571651 
L 210.22762 120.801072 
L 210.47116 120.801072 
L 210.592929 120.043444 
L 210.897354 120.043444 
L 211.019124 119.298339 
L 211.140894 119.298339 
L 211.323548 117.844091 
L 211.749743 117.844091 
L 211.871512 117.13419 
L 212.480362 117.13419 
L 212.602131 116.435295 
L 214.063369 116.435295 
L 214.185139 115.747072 
L 214.306909 115.747072 
L 214.428678 115.069197 
L 215.768146 115.069197 
L 215.889916 114.401366 
L 215.950801 114.401366 
L 216.072571 113.743284 
L 216.498765 113.743284 
L 216.620535 112.45526 
L 217.838233 112.45526 
L 217.960003 111.824791 
L 218.325312 111.824791 
L 218.447082 111.203018 
L 220.151859 111.203018 
L 220.273629 110.589706 
L 220.395399 110.589706 
L 220.517169 109.984626 
L 220.638939 109.984626 
L 220.760709 109.38756 
L 221.126018 109.38756 
L 221.369558 107.642395 
L 221.491327 107.642395 
L 221.613097 106.515392 
L 221.978407 106.515392 
L 222.100176 105.962283 
L 222.709025 105.962283 
L 222.89168 104.876019 
L 223.196105 104.876019 
L 223.378759 103.815316 
L 223.500529 103.815316 
L 223.622299 103.29418 
L 223.804954 103.29418 
L 223.926724 102.778999 
L 223.987608 102.778999 
L 224.109378 102.26964 
L 224.170263 102.26964 
L 224.292033 101.765973 
L 225.448846 101.765973 
L 225.692386 100.28788 
L 226.11858 100.28788 
L 226.24035 99.80576 
L 226.666544 99.80576 
L 226.788314 99.328742 
L 226.910084 99.328742 
L 227.031854 98.856719 
L 227.640703 98.856719 
L 227.823357 97.927247 
L 229.22371 97.927247 
L 229.34548 97.4696 
L 229.710789 97.4696 
L 229.893444 96.568014 
L 230.197869 96.568014 
L 230.441408 95.24857 
L 231.415567 95.24857 
L 231.537337 94.817201 
L 231.963531 94.817201 
L 232.57238 91.110089 
L 232.69415 91.110089 
L 232.81592 90.716394 
L 233.120344 90.716394 
L 233.242114 90.326107 
L 233.302999 90.326107 
L 233.424769 89.939171 
L 233.546538 89.939171 
L 233.790078 88.7979 
L 234.398927 88.7979 
L 234.520697 88.423809 
L 234.581582 88.423809 
L 234.703352 88.052796 
L 235.251316 88.052796 
L 235.373086 87.684812 
L 235.494855 87.684812 
L 235.616625 87.319808 
L 236.529899 87.319808 
L 236.712553 86.598548 
L 236.773438 86.598548 
L 236.895208 86.2422 
L 237.016978 86.2422 
L 237.138748 85.888647 
L 237.443172 85.888647 
L 237.747597 84.501528 
L 237.808482 84.501528 
L 237.991136 83.823654 
L 238.112906 83.823654 
L 238.295561 83.155823 
L 238.965295 83.155823 
L 239.087065 82.825581 
L 239.330604 82.825581 
L 239.513259 82.172268 
L 239.574144 82.172268 
L 239.939453 80.579247 
L 240.061223 80.579247 
L 240.182993 80.267289 
L 240.609187 80.267289 
L 240.730957 79.957475 
L 240.974497 79.957475 
L 241.096267 79.649776 
L 241.339806 79.649776 
L 241.461576 79.344162 
L 241.583346 79.344162 
L 241.766 78.439561 
L 242.00954 78.439561 
L 242.192195 77.846423 
L 242.618389 77.846423 
L 242.740159 77.552756 
L 242.801044 77.552756 
L 242.922814 77.260989 
L 243.044583 77.260989 
L 243.166353 76.683061 
L 243.349008 76.683061 
L 243.470778 76.396852 
L 243.531663 76.396852 
L 243.653433 75.829828 
L 243.775202 75.829828 
L 243.957857 75.269848 
L 244.018742 75.269848 
L 244.140512 74.992446 
L 244.810246 74.992446 
L 244.932015 74.71674 
L 245.053785 74.71674 
L 245.23644 74.170336 
L 245.662634 74.170336 
L 245.845289 73.630475 
L 246.332368 73.630475 
L 246.515023 73.097004 
L 246.819448 73.097004 
L 247.002102 72.569773 
L 247.245642 72.569773 
L 247.367412 72.308451 
L 248.158915 72.308451 
L 248.280685 72.048636 
L 248.524225 72.048636 
L 248.645995 71.79031 
L 248.950419 71.79031 
L 249.133074 71.278057 
L 249.254844 71.278057 
L 249.376614 70.77156 
L 249.559268 70.77156 
L 249.741923 70.27069 
L 249.863693 70.27069 
L 250.107232 69.529669 
L 250.289887 69.529669 
L 250.411657 69.285344 
L 250.716081 69.285344 
L 250.898736 68.800632 
L 250.959621 68.800632 
L 251.081391 68.560216 
L 251.385815 68.560216 
L 251.69024 67.611175 
L 252.299089 67.611175 
L 252.420859 67.377004 
L 252.542629 67.377004 
L 252.786168 66.681703 
L 252.847053 66.681703 
L 253.029708 66.224057 
L 253.273247 66.224057 
L 253.395017 65.996964 
L 253.638557 65.996964 
L 253.821212 65.322471 
L 253.882096 65.322471 
L 254.125636 64.657922 
L 254.308291 64.657922 
L 254.430061 64.438564 
L 254.612715 64.438564 
L 254.734485 64.22027 
L 256.073953 64.22027 
L 256.256608 63.786826 
L 257.169881 63.786826 
L 257.291651 63.571657 
L 257.413421 63.571657 
L 257.535191 63.35751 
L 257.596076 63.35751 
L 257.717845 63.144376 
L 257.961385 63.144376 
L 258.14404 62.721108 
L 258.26581 62.721108 
L 258.387579 62.510954 
L 258.752889 62.510954 
L 258.874659 62.301776 
L 259.544393 62.301776 
L 259.666162 62.093564 
L 259.727047 62.093564 
L 259.909702 61.680004 
L 260.153242 61.680004 
L 260.275011 61.270203 
L 260.701206 61.270203 
L 260.822976 61.066691 
L 262.710408 61.066691 
L 262.893062 60.662403 
L 263.197487 60.662403 
L 263.319257 60.461611 
L 263.623681 60.461611 
L 263.745451 60.261709 
L 264.11076 60.261709 
L 264.23253 60.06269 
L 264.415185 60.06269 
L 264.536955 59.864545 
L 264.902264 59.864545 
L 265.024034 59.667268 
L 265.328458 59.667268 
L 265.511113 59.275285 
L 266.363502 59.275285 
L 266.485272 59.080564 
L 266.607041 59.080564 
L 266.728811 58.693628 
L 266.850581 58.693628 
L 266.972351 58.501398 
L 267.520315 58.501398 
L 267.642085 58.309985 
L 268.068279 58.309985 
L 268.250934 57.929579 
L 268.920668 57.929579 
L 269.042438 57.740574 
L 269.285977 57.740574 
L 269.468632 57.364923 
L 269.590402 57.364923 
L 269.712172 57.178265 
L 270.077481 57.178265 
L 270.260136 56.622885 
L 270.321021 56.622885 
L 270.44279 56.439269 
L 270.747215 56.439269 
L 270.868985 56.256397 
L 271.112524 56.256397 
L 271.234294 56.074264 
L 271.904028 56.074264 
L 272.025798 55.892864 
L 272.086683 55.892864 
L 272.208453 55.712192 
L 272.695532 55.712192 
L 272.817302 55.53224 
L 273.182611 55.53224 
L 273.365266 54.996656 
L 273.852345 54.996656 
L 273.974115 54.819533 
L 274.582964 54.819533 
L 274.704734 54.643103 
L 275.009158 54.643103 
L 275.191813 54.292301 
L 277.748979 54.292301 
L 277.870749 54.117919 
L 278.053403 54.117919 
L 278.175173 53.944209 
L 279.027562 53.944209 
L 279.210217 53.427058 
L 279.758181 53.427058 
L 279.879951 53.255985 
L 280.854109 53.255985 
L 280.975879 53.085558 
L 281.036764 53.085558 
L 281.341188 52.410223 
L 281.767383 52.410223 
L 281.950037 51.910279 
L 282.010922 51.910279 
L 282.132692 51.744856 
L 283.045966 51.744856 
L 283.167735 51.580037 
L 283.35039 51.580037 
L 283.533045 51.252197 
L 283.654815 51.252197 
L 283.837469 50.926725 
L 285.237822 50.926725 
L 285.359592 50.764865 
L 286.33375 50.764865 
L 286.45552 50.603585 
L 287.429679 50.603585 
L 287.551448 50.44288 
L 287.794988 50.44288 
L 287.916758 50.282745 
L 288.221182 50.282745 
L 288.342952 50.123178 
L 288.525607 50.123178 
L 288.708262 49.805727 
L 289.073571 49.805727 
L 289.195341 49.647836 
L 290.473924 49.647836 
L 290.656579 49.021746 
L 291.387197 49.021746 
L 291.508967 48.866573 
L 292.604896 48.866573 
L 292.726665 48.711932 
L 293.03109 48.711932 
L 293.15286 48.557819 
L 294.005248 48.557819 
L 294.187903 48.251167 
L 295.466486 48.251167 
L 295.588256 48.098619 
L 296.745069 48.098619 
L 296.866839 47.946586 
L 296.927724 47.946586 
L 297.049494 47.795064 
L 297.475688 47.795064 
L 297.597458 47.644049 
L 298.145422 47.644049 
L 298.267192 47.493539 
L 300.093739 47.493539 
L 300.215509 47.343529 
L 300.763473 47.343529 
L 300.885243 47.194017 
L 301.554976 47.194017 
L 301.676746 47.045 
L 303.016214 47.045 
L 303.137984 46.896473 
L 303.503293 46.896473 
L 303.625063 46.748434 
L 304.233912 46.748434 
L 304.355682 46.60088 
L 309.957093 46.60088 
L 310.200633 46.161093 
L 312.209835 46.161093 
L 312.331605 46.015446 
L 314.219037 46.015446 
L 314.340806 45.870268 
L 315.619389 45.870268 
L 315.741159 45.725556 
L 316.837087 45.725556 
L 316.958857 45.437518 
L 318.23744 45.437518 
L 318.35921 45.294186 
L 321.281685 45.294186 
L 321.403455 45.151309 
L 322.864693 45.151309 
L 323.047348 44.866905 
L 339.364502 44.866905 
L 339.486272 44.725373 
L 373.581818 44.725373 
L 373.581818 44.725373 
" style="fill:none;stroke:#2ca02c;stroke-linecap:square;stroke-width:1.5;"/>
   </g>
   <g id="patch_3">
    <path d="M 54 252 
L 54 34.56 
" style="fill:none;stroke:#000000;stroke-linecap:square;stroke-linejoin:miter;stroke-width:0.8;"/>
   </g>
   <g id="patch_4">
    <path d="M 388.8 252 
L 388.8 34.56 
" style="fill:none;stroke:#000000;stroke-linecap:square;stroke-linejoin:miter;stroke-width:0.8;"/>
   </g>
   <g id="patch_5">
    <path d="M 54 252 
L 388.8 252 
" style="fill:none;stroke:#000000;stroke-linecap:square;stroke-linejoin:miter;stroke-width:0.8;"/>
   </g>
   <g id="patch_6">
    <path d="M 54 34.56 
L 388.8 34.56 
" style="fill:none;stroke:#000000;stroke-linecap:square;stroke-linejoin:miter;stroke-width:0.8;"/>
   </g>
   <g id="legend_1">
    <g id="patch_7">
     <path d="M 61 247 
L 105.696875 247 
Q 107.696875 247 107.696875 245 
L 107.696875 201.965625 
Q 107.696875 199.965625 105.696875 199.965625 
L 61 199.965625 
Q 59 199.965625 59 201.965625 
L 59 245 
Q 59 247 61 247 
z
" style="fill:#ffffff;opacity:0.8;stroke:#cccccc;stroke-linejoin:miter;"/>
    </g>
    <g id="line2d_30">
     <path d="M 63 208.064063 
L 83 208.064063 
" style="fill:none;stroke:#1f77b4;stroke-linecap:square;stroke-width:1.5;"/>
    </g>
    <g id="line2d_31"/>
    <g id="text_11">
     <!-- Ct -->
     <g transform="translate(91 211.564063)scale(0.1 -0.1)">
      <defs>
       <path d="M 64.40625 67.28125 
L 64.40625 56.890625 
Q 59.421875 61.53125 53.78125 63.8125 
Q 48.140625 66.109375 41.796875 66.109375 
Q 29.296875 66.109375 22.65625 58.46875 
Q 16.015625 50.828125 16.015625 36.375 
Q 16.015625 21.96875 22.65625 14.328125 
Q 29.296875 6.6875 41.796875 6.6875 
Q 48.140625 6.6875 53.78125 8.984375 
Q 59.421875 11.28125 64.40625 15.921875 
L 64.40625 5.609375 
Q 59.234375 2.09375 53.4375 0.328125 
Q 47.65625 -1.421875 41.21875 -1.421875 
Q 24.65625 -1.421875 15.125 8.703125 
Q 5.609375 18.84375 5.609375 36.375 
Q 5.609375 53.953125 15.125 64.078125 
Q 24.65625 74.21875 41.21875 74.21875 
Q 47.75 74.21875 53.53125 72.484375 
Q 59.328125 70.75 64.40625 67.28125 
z
" id="DejaVuSans-67"/>
      </defs>
      <use xlink:href="#DejaVuSans-67"/>
      <use x="69.824219" xlink:href="#DejaVuSans-116"/>
     </g>
    </g>
    <g id="line2d_32">
     <path d="M 63 222.742188 
L 83 222.742188 
" style="fill:none;stroke:#ff7f0e;stroke-linecap:square;stroke-width:1.5;"/>
    </g>
    <g id="line2d_33"/>
    <g id="text_12">
     <!-- Pr -->
     <g transform="translate(91 226.242188)scale(0.1 -0.1)">
      <defs>
       <path d="M 19.671875 64.796875 
L 19.671875 37.40625 
L 32.078125 37.40625 
Q 38.96875 37.40625 42.71875 40.96875 
Q 46.484375 44.53125 46.484375 51.125 
Q 46.484375 57.671875 42.71875 61.234375 
Q 38.96875 64.796875 32.078125 64.796875 
z
M 9.8125 72.90625 
L 32.078125 72.90625 
Q 44.34375 72.90625 50.609375 67.359375 
Q 56.890625 61.8125 56.890625 51.125 
Q 56.890625 40.328125 50.609375 34.8125 
Q 44.34375 29.296875 32.078125 29.296875 
L 19.671875 29.296875 
L 19.671875 0 
L 9.8125 0 
z
" id="DejaVuSans-80"/>
      </defs>
      <use xlink:href="#DejaVuSans-80"/>
      <use x="58.552734" xlink:href="#DejaVuSans-114"/>
     </g>
    </g>
    <g id="line2d_34">
     <path d="M 63 237.420313 
L 83 237.420313 
" style="fill:none;stroke:#2ca02c;stroke-linecap:square;stroke-width:1.5;"/>
    </g>
    <g id="line2d_35"/>
    <g id="text_13">
     <!-- Sd -->
     <g transform="translate(91 240.920313)scale(0.1 -0.1)">
      <defs>
       <path d="M 53.515625 70.515625 
L 53.515625 60.890625 
Q 47.90625 63.578125 42.921875 64.890625 
Q 37.9375 66.21875 33.296875 66.21875 
Q 25.25 66.21875 20.875 63.09375 
Q 16.5 59.96875 16.5 54.203125 
Q 16.5 49.359375 19.40625 46.890625 
Q 22.3125 44.4375 30.421875 42.921875 
L 36.375 41.703125 
Q 47.40625 39.59375 52.65625 34.296875 
Q 57.90625 29 57.90625 20.125 
Q 57.90625 9.515625 50.796875 4.046875 
Q 43.703125 -1.421875 29.984375 -1.421875 
Q 24.8125 -1.421875 18.96875 -0.25 
Q 13.140625 0.921875 6.890625 3.21875 
L 6.890625 13.375 
Q 12.890625 10.015625 18.65625 8.296875 
Q 24.421875 6.59375 29.984375 6.59375 
Q 38.421875 6.59375 43.015625 9.90625 
Q 47.609375 13.234375 47.609375 19.390625 
Q 47.609375 24.75 44.3125 27.78125 
Q 41.015625 30.8125 33.5 32.328125 
L 27.484375 33.5 
Q 16.453125 35.6875 11.515625 40.375 
Q 6.59375 45.0625 6.59375 53.421875 
Q 6.59375 63.09375 13.40625 68.65625 
Q 20.21875 74.21875 32.171875 74.21875 
Q 37.3125 74.21875 42.625 73.28125 
Q 47.953125 72.359375 53.515625 70.515625 
z
" id="DejaVuSans-83"/>
      </defs>
      <use xlink:href="#DejaVuSans-83"/>
      <use x="63.476562" xlink:href="#DejaVuSans-100"/>
     </g>
    </g>
   </g>
  </g>
 </g>
 <defs>
  <clipPath id="pe973860cd1">
   <rect height="217.44" width="334.8" x="54" y="34.56"/>
  </clipPath>
 </defs>
</svg>
