<?xml version="1.0" encoding="utf-8" standalone="no"?>
<!DOCTYPE svg PUBLIC "-//W3C//DTD SVG 1.1//EN"
  "http://www.w3.org/Graphics/SVG/1.1/DTD/svg11.dtd">
<!-- Created with matplotlib (https://matplotlib.org/) -->
<svg height="432pt" version="1.1" viewBox="0 0 576 432" width="576pt" xmlns="http://www.w3.org/2000/svg" xmlns:xlink="http://www.w3.org/1999/xlink">
 <defs>
  <style type="text/css">
*{stroke-linecap:butt;stroke-linejoin:round;}
  </style>
 </defs>
 <g id="figure_1">
  <g id="patch_1">
   <path d="M 0 432 
L 576 432 
L 576 0 
L 0 0 
z
" style="fill:#ffffff;"/>
  </g>
  <g id="axes_1">
   <g id="patch_2">
    <path d="M 47.8 390.2 
L 565.2 390.2 
L 565.2 26.8 
L 47.8 26.8 
z
" style="fill:#ffffff;"/>
   </g>
   <g id="matplotlib.axis_1">
    <g id="xtick_1">
     <g id="line2d_1">
      <defs>
       <path d="M 0 0 
L 0 3.5 
" id="mbb77521896" style="stroke:#000000;stroke-width:0.8;"/>
      </defs>
      <g>
       <use style="stroke:#000000;stroke-width:0.8;" x="57.75" xlink:href="#mbb77521896" y="390.2"/>
      </g>
     </g>
     <g id="text_1">
      <!-- 5 -->
      <defs>
       <path d="M 10.796875 72.90625 
L 49.515625 72.90625 
L 49.515625 64.59375 
L 19.828125 64.59375 
L 19.828125 46.734375 
Q 21.96875 47.46875 24.109375 47.828125 
Q 26.265625 48.1875 28.421875 48.1875 
Q 40.625 48.1875 47.75 41.5 
Q 54.890625 34.8125 54.890625 23.390625 
Q 54.890625 11.625 47.5625 5.09375 
Q 40.234375 -1.421875 26.90625 -1.421875 
Q 22.3125 -1.421875 17.546875 -0.640625 
Q 12.796875 0.140625 7.71875 1.703125 
L 7.71875 11.625 
Q 12.109375 9.234375 16.796875 8.0625 
Q 21.484375 6.890625 26.703125 6.890625 
Q 35.15625 6.890625 40.078125 11.328125 
Q 45.015625 15.765625 45.015625 23.390625 
Q 45.015625 31 40.078125 35.4375 
Q 35.15625 39.890625 26.703125 39.890625 
Q 22.75 39.890625 18.8125 39.015625 
Q 14.890625 38.140625 10.796875 36.28125 
z
" id="DejaVuSans-53"/>
      </defs>
      <g transform="translate(54.56875 404.798438)scale(0.1 -0.1)">
       <use xlink:href="#DejaVuSans-53"/>
      </g>
     </g>
    </g>
    <g id="xtick_2">
     <g id="line2d_2">
      <g>
       <use style="stroke:#000000;stroke-width:0.8;" x="157.25" xlink:href="#mbb77521896" y="390.2"/>
      </g>
     </g>
     <g id="text_2">
      <!-- 10 -->
      <defs>
       <path d="M 12.40625 8.296875 
L 28.515625 8.296875 
L 28.515625 63.921875 
L 10.984375 60.40625 
L 10.984375 69.390625 
L 28.421875 72.90625 
L 38.28125 72.90625 
L 38.28125 8.296875 
L 54.390625 8.296875 
L 54.390625 0 
L 12.40625 0 
z
" id="DejaVuSans-49"/>
       <path d="M 31.78125 66.40625 
Q 24.171875 66.40625 20.328125 58.90625 
Q 16.5 51.421875 16.5 36.375 
Q 16.5 21.390625 20.328125 13.890625 
Q 24.171875 6.390625 31.78125 6.390625 
Q 39.453125 6.390625 43.28125 13.890625 
Q 47.125 21.390625 47.125 36.375 
Q 47.125 51.421875 43.28125 58.90625 
Q 39.453125 66.40625 31.78125 66.40625 
z
M 31.78125 74.21875 
Q 44.046875 74.21875 50.515625 64.515625 
Q 56.984375 54.828125 56.984375 36.375 
Q 56.984375 17.96875 50.515625 8.265625 
Q 44.046875 -1.421875 31.78125 -1.421875 
Q 19.53125 -1.421875 13.0625 8.265625 
Q 6.59375 17.96875 6.59375 36.375 
Q 6.59375 54.828125 13.0625 64.515625 
Q 19.53125 74.21875 31.78125 74.21875 
z
" id="DejaVuSans-48"/>
      </defs>
      <g transform="translate(150.8875 404.798438)scale(0.1 -0.1)">
       <use xlink:href="#DejaVuSans-49"/>
       <use x="63.623047" xlink:href="#DejaVuSans-48"/>
      </g>
     </g>
    </g>
    <g id="xtick_3">
     <g id="line2d_3">
      <g>
       <use style="stroke:#000000;stroke-width:0.8;" x="256.75" xlink:href="#mbb77521896" y="390.2"/>
      </g>
     </g>
     <g id="text_3">
      <!-- 15 -->
      <g transform="translate(250.3875 404.798438)scale(0.1 -0.1)">
       <use xlink:href="#DejaVuSans-49"/>
       <use x="63.623047" xlink:href="#DejaVuSans-53"/>
      </g>
     </g>
    </g>
    <g id="xtick_4">
     <g id="line2d_4">
      <g>
       <use style="stroke:#000000;stroke-width:0.8;" x="356.25" xlink:href="#mbb77521896" y="390.2"/>
      </g>
     </g>
     <g id="text_4">
      <!-- 20 -->
      <defs>
       <path d="M 19.1875 8.296875 
L 53.609375 8.296875 
L 53.609375 0 
L 7.328125 0 
L 7.328125 8.296875 
Q 12.9375 14.109375 22.625 23.890625 
Q 32.328125 33.6875 34.8125 36.53125 
Q 39.546875 41.84375 41.421875 45.53125 
Q 43.3125 49.21875 43.3125 52.78125 
Q 43.3125 58.59375 39.234375 62.25 
Q 35.15625 65.921875 28.609375 65.921875 
Q 23.96875 65.921875 18.8125 64.3125 
Q 13.671875 62.703125 7.8125 59.421875 
L 7.8125 69.390625 
Q 13.765625 71.78125 18.9375 73 
Q 24.125 74.21875 28.421875 74.21875 
Q 39.75 74.21875 46.484375 68.546875 
Q 53.21875 62.890625 53.21875 53.421875 
Q 53.21875 48.921875 51.53125 44.890625 
Q 49.859375 40.875 45.40625 35.40625 
Q 44.1875 33.984375 37.640625 27.21875 
Q 31.109375 20.453125 19.1875 8.296875 
z
" id="DejaVuSans-50"/>
      </defs>
      <g transform="translate(349.8875 404.798438)scale(0.1 -0.1)">
       <use xlink:href="#DejaVuSans-50"/>
       <use x="63.623047" xlink:href="#DejaVuSans-48"/>
      </g>
     </g>
    </g>
    <g id="xtick_5">
     <g id="line2d_5">
      <g>
       <use style="stroke:#000000;stroke-width:0.8;" x="455.75" xlink:href="#mbb77521896" y="390.2"/>
      </g>
     </g>
     <g id="text_5">
      <!-- 25 -->
      <g transform="translate(449.3875 404.798438)scale(0.1 -0.1)">
       <use xlink:href="#DejaVuSans-50"/>
       <use x="63.623047" xlink:href="#DejaVuSans-53"/>
      </g>
     </g>
    </g>
    <g id="xtick_6">
     <g id="line2d_6">
      <g>
       <use style="stroke:#000000;stroke-width:0.8;" x="555.25" xlink:href="#mbb77521896" y="390.2"/>
      </g>
     </g>
     <g id="text_6">
      <!-- 30 -->
      <defs>
       <path d="M 40.578125 39.3125 
Q 47.65625 37.796875 51.625 33 
Q 55.609375 28.21875 55.609375 21.1875 
Q 55.609375 10.40625 48.1875 4.484375 
Q 40.765625 -1.421875 27.09375 -1.421875 
Q 22.515625 -1.421875 17.65625 -0.515625 
Q 12.796875 0.390625 7.625 2.203125 
L 7.625 11.71875 
Q 11.71875 9.328125 16.59375 8.109375 
Q 21.484375 6.890625 26.8125 6.890625 
Q 36.078125 6.890625 40.9375 10.546875 
Q 45.796875 14.203125 45.796875 21.1875 
Q 45.796875 27.640625 41.28125 31.265625 
Q 36.765625 34.90625 28.71875 34.90625 
L 20.21875 34.90625 
L 20.21875 43.015625 
L 29.109375 43.015625 
Q 36.375 43.015625 40.234375 45.921875 
Q 44.09375 48.828125 44.09375 54.296875 
Q 44.09375 59.90625 40.109375 62.90625 
Q 36.140625 65.921875 28.71875 65.921875 
Q 24.65625 65.921875 20.015625 65.03125 
Q 15.375 64.15625 9.8125 62.3125 
L 9.8125 71.09375 
Q 15.4375 72.65625 20.34375 73.4375 
Q 25.25 74.21875 29.59375 74.21875 
Q 40.828125 74.21875 47.359375 69.109375 
Q 53.90625 64.015625 53.90625 55.328125 
Q 53.90625 49.265625 50.4375 45.09375 
Q 46.96875 40.921875 40.578125 39.3125 
z
" id="DejaVuSans-51"/>
      </defs>
      <g transform="translate(548.8875 404.798438)scale(0.1 -0.1)">
       <use xlink:href="#DejaVuSans-51"/>
       <use x="63.623047" xlink:href="#DejaVuSans-48"/>
      </g>
     </g>
    </g>
    <g id="text_7">
     <!-- Time (Minutes) -->
     <defs>
      <path d="M -0.296875 72.90625 
L 61.375 72.90625 
L 61.375 64.59375 
L 35.5 64.59375 
L 35.5 0 
L 25.59375 0 
L 25.59375 64.59375 
L -0.296875 64.59375 
z
" id="DejaVuSans-84"/>
      <path d="M 9.421875 54.6875 
L 18.40625 54.6875 
L 18.40625 0 
L 9.421875 0 
z
M 9.421875 75.984375 
L 18.40625 75.984375 
L 18.40625 64.59375 
L 9.421875 64.59375 
z
" id="DejaVuSans-105"/>
      <path d="M 52 44.1875 
Q 55.375 50.25 60.0625 53.125 
Q 64.75 56 71.09375 56 
Q 79.640625 56 84.28125 50.015625 
Q 88.921875 44.046875 88.921875 33.015625 
L 88.921875 0 
L 79.890625 0 
L 79.890625 32.71875 
Q 79.890625 40.578125 77.09375 44.375 
Q 74.3125 48.1875 68.609375 48.1875 
Q 61.625 48.1875 57.5625 43.546875 
Q 53.515625 38.921875 53.515625 30.90625 
L 53.515625 0 
L 44.484375 0 
L 44.484375 32.71875 
Q 44.484375 40.625 41.703125 44.40625 
Q 38.921875 48.1875 33.109375 48.1875 
Q 26.21875 48.1875 22.15625 43.53125 
Q 18.109375 38.875 18.109375 30.90625 
L 18.109375 0 
L 9.078125 0 
L 9.078125 54.6875 
L 18.109375 54.6875 
L 18.109375 46.1875 
Q 21.1875 51.21875 25.484375 53.609375 
Q 29.78125 56 35.6875 56 
Q 41.65625 56 45.828125 52.96875 
Q 50 49.953125 52 44.1875 
z
" id="DejaVuSans-109"/>
      <path d="M 56.203125 29.59375 
L 56.203125 25.203125 
L 14.890625 25.203125 
Q 15.484375 15.921875 20.484375 11.0625 
Q 25.484375 6.203125 34.421875 6.203125 
Q 39.59375 6.203125 44.453125 7.46875 
Q 49.3125 8.734375 54.109375 11.28125 
L 54.109375 2.78125 
Q 49.265625 0.734375 44.1875 -0.34375 
Q 39.109375 -1.421875 33.890625 -1.421875 
Q 20.796875 -1.421875 13.15625 6.1875 
Q 5.515625 13.8125 5.515625 26.8125 
Q 5.515625 40.234375 12.765625 48.109375 
Q 20.015625 56 32.328125 56 
Q 43.359375 56 49.78125 48.890625 
Q 56.203125 41.796875 56.203125 29.59375 
z
M 47.21875 32.234375 
Q 47.125 39.59375 43.09375 43.984375 
Q 39.0625 48.390625 32.421875 48.390625 
Q 24.90625 48.390625 20.390625 44.140625 
Q 15.875 39.890625 15.1875 32.171875 
z
" id="DejaVuSans-101"/>
      <path id="DejaVuSans-32"/>
      <path d="M 31 75.875 
Q 24.46875 64.65625 21.28125 53.65625 
Q 18.109375 42.671875 18.109375 31.390625 
Q 18.109375 20.125 21.3125 9.0625 
Q 24.515625 -2 31 -13.1875 
L 23.1875 -13.1875 
Q 15.875 -1.703125 12.234375 9.375 
Q 8.59375 20.453125 8.59375 31.390625 
Q 8.59375 42.28125 12.203125 53.3125 
Q 15.828125 64.359375 23.1875 75.875 
z
" id="DejaVuSans-40"/>
      <path d="M 9.8125 72.90625 
L 24.515625 72.90625 
L 43.109375 23.296875 
L 61.8125 72.90625 
L 76.515625 72.90625 
L 76.515625 0 
L 66.890625 0 
L 66.890625 64.015625 
L 48.09375 14.015625 
L 38.1875 14.015625 
L 19.390625 64.015625 
L 19.390625 0 
L 9.8125 0 
z
" id="DejaVuSans-77"/>
      <path d="M 54.890625 33.015625 
L 54.890625 0 
L 45.90625 0 
L 45.90625 32.71875 
Q 45.90625 40.484375 42.875 44.328125 
Q 39.84375 48.1875 33.796875 48.1875 
Q 26.515625 48.1875 22.3125 43.546875 
Q 18.109375 38.921875 18.109375 30.90625 
L 18.109375 0 
L 9.078125 0 
L 9.078125 54.6875 
L 18.109375 54.6875 
L 18.109375 46.1875 
Q 21.34375 51.125 25.703125 53.5625 
Q 30.078125 56 35.796875 56 
Q 45.21875 56 50.046875 50.171875 
Q 54.890625 44.34375 54.890625 33.015625 
z
" id="DejaVuSans-110"/>
      <path d="M 8.5 21.578125 
L 8.5 54.6875 
L 17.484375 54.6875 
L 17.484375 21.921875 
Q 17.484375 14.15625 20.5 10.265625 
Q 23.53125 6.390625 29.59375 6.390625 
Q 36.859375 6.390625 41.078125 11.03125 
Q 45.3125 15.671875 45.3125 23.6875 
L 45.3125 54.6875 
L 54.296875 54.6875 
L 54.296875 0 
L 45.3125 0 
L 45.3125 8.40625 
Q 42.046875 3.421875 37.71875 1 
Q 33.40625 -1.421875 27.6875 -1.421875 
Q 18.265625 -1.421875 13.375 4.4375 
Q 8.5 10.296875 8.5 21.578125 
z
M 31.109375 56 
z
" id="DejaVuSans-117"/>
      <path d="M 18.3125 70.21875 
L 18.3125 54.6875 
L 36.8125 54.6875 
L 36.8125 47.703125 
L 18.3125 47.703125 
L 18.3125 18.015625 
Q 18.3125 11.328125 20.140625 9.421875 
Q 21.96875 7.515625 27.59375 7.515625 
L 36.8125 7.515625 
L 36.8125 0 
L 27.59375 0 
Q 17.1875 0 13.234375 3.875 
Q 9.28125 7.765625 9.28125 18.015625 
L 9.28125 47.703125 
L 2.6875 47.703125 
L 2.6875 54.6875 
L 9.28125 54.6875 
L 9.28125 70.21875 
z
" id="DejaVuSans-116"/>
      <path d="M 44.28125 53.078125 
L 44.28125 44.578125 
Q 40.484375 46.53125 36.375 47.5 
Q 32.28125 48.484375 27.875 48.484375 
Q 21.1875 48.484375 17.84375 46.4375 
Q 14.5 44.390625 14.5 40.28125 
Q 14.5 37.15625 16.890625 35.375 
Q 19.28125 33.59375 26.515625 31.984375 
L 29.59375 31.296875 
Q 39.15625 29.25 43.1875 25.515625 
Q 47.21875 21.78125 47.21875 15.09375 
Q 47.21875 7.46875 41.1875 3.015625 
Q 35.15625 -1.421875 24.609375 -1.421875 
Q 20.21875 -1.421875 15.453125 -0.5625 
Q 10.6875 0.296875 5.421875 2 
L 5.421875 11.28125 
Q 10.40625 8.6875 15.234375 7.390625 
Q 20.0625 6.109375 24.8125 6.109375 
Q 31.15625 6.109375 34.5625 8.28125 
Q 37.984375 10.453125 37.984375 14.40625 
Q 37.984375 18.0625 35.515625 20.015625 
Q 33.0625 21.96875 24.703125 23.78125 
L 21.578125 24.515625 
Q 13.234375 26.265625 9.515625 29.90625 
Q 5.8125 33.546875 5.8125 39.890625 
Q 5.8125 47.609375 11.28125 51.796875 
Q 16.75 56 26.8125 56 
Q 31.78125 56 36.171875 55.265625 
Q 40.578125 54.546875 44.28125 53.078125 
z
" id="DejaVuSans-115"/>
      <path d="M 8.015625 75.875 
L 15.828125 75.875 
Q 23.140625 64.359375 26.78125 53.3125 
Q 30.421875 42.28125 30.421875 31.390625 
Q 30.421875 20.453125 26.78125 9.375 
Q 23.140625 -1.703125 15.828125 -13.1875 
L 8.015625 -13.1875 
Q 14.5 -2 17.703125 9.0625 
Q 20.90625 20.125 20.90625 31.390625 
Q 20.90625 42.671875 17.703125 53.65625 
Q 14.5 64.65625 8.015625 75.875 
z
" id="DejaVuSans-41"/>
     </defs>
     <g transform="translate(268.939844 418.476562)scale(0.1 -0.1)">
      <use xlink:href="#DejaVuSans-84"/>
      <use x="61.037109" xlink:href="#DejaVuSans-105"/>
      <use x="88.820312" xlink:href="#DejaVuSans-109"/>
      <use x="186.232422" xlink:href="#DejaVuSans-101"/>
      <use x="247.755859" xlink:href="#DejaVuSans-32"/>
      <use x="279.542969" xlink:href="#DejaVuSans-40"/>
      <use x="318.556641" xlink:href="#DejaVuSans-77"/>
      <use x="404.835938" xlink:href="#DejaVuSans-105"/>
      <use x="432.619141" xlink:href="#DejaVuSans-110"/>
      <use x="495.998047" xlink:href="#DejaVuSans-117"/>
      <use x="559.376953" xlink:href="#DejaVuSans-116"/>
      <use x="598.585938" xlink:href="#DejaVuSans-101"/>
      <use x="660.109375" xlink:href="#DejaVuSans-115"/>
      <use x="712.208984" xlink:href="#DejaVuSans-41"/>
     </g>
    </g>
   </g>
   <g id="matplotlib.axis_2">
    <g id="ytick_1">
     <g id="line2d_7">
      <defs>
       <path d="M 0 0 
L -3.5 0 
" id="md5d419c8ad" style="stroke:#000000;stroke-width:0.8;"/>
      </defs>
      <g>
       <use style="stroke:#000000;stroke-width:0.8;" x="47.8" xlink:href="#md5d419c8ad" y="390.2"/>
      </g>
     </g>
     <g id="text_8">
      <!-- 0.4 -->
      <defs>
       <path d="M 10.6875 12.40625 
L 21 12.40625 
L 21 0 
L 10.6875 0 
z
" id="DejaVuSans-46"/>
       <path d="M 37.796875 64.3125 
L 12.890625 25.390625 
L 37.796875 25.390625 
z
M 35.203125 72.90625 
L 47.609375 72.90625 
L 47.609375 25.390625 
L 58.015625 25.390625 
L 58.015625 17.1875 
L 47.609375 17.1875 
L 47.609375 0 
L 37.796875 0 
L 37.796875 17.1875 
L 4.890625 17.1875 
L 4.890625 26.703125 
z
" id="DejaVuSans-52"/>
      </defs>
      <g transform="translate(24.896875 393.999219)scale(0.1 -0.1)">
       <use xlink:href="#DejaVuSans-48"/>
       <use x="63.623047" xlink:href="#DejaVuSans-46"/>
       <use x="95.410156" xlink:href="#DejaVuSans-52"/>
      </g>
     </g>
    </g>
    <g id="ytick_2">
     <g id="line2d_8">
      <g>
       <use style="stroke:#000000;stroke-width:0.8;" x="47.8" xlink:href="#md5d419c8ad" y="349.822222"/>
      </g>
     </g>
     <g id="text_9">
      <!-- 0.5 -->
      <g transform="translate(24.896875 353.621441)scale(0.1 -0.1)">
       <use xlink:href="#DejaVuSans-48"/>
       <use x="63.623047" xlink:href="#DejaVuSans-46"/>
       <use x="95.410156" xlink:href="#DejaVuSans-53"/>
      </g>
     </g>
    </g>
    <g id="ytick_3">
     <g id="line2d_9">
      <g>
       <use style="stroke:#000000;stroke-width:0.8;" x="47.8" xlink:href="#md5d419c8ad" y="309.444444"/>
      </g>
     </g>
     <g id="text_10">
      <!-- 0.6 -->
      <defs>
       <path d="M 33.015625 40.375 
Q 26.375 40.375 22.484375 35.828125 
Q 18.609375 31.296875 18.609375 23.390625 
Q 18.609375 15.53125 22.484375 10.953125 
Q 26.375 6.390625 33.015625 6.390625 
Q 39.65625 6.390625 43.53125 10.953125 
Q 47.40625 15.53125 47.40625 23.390625 
Q 47.40625 31.296875 43.53125 35.828125 
Q 39.65625 40.375 33.015625 40.375 
z
M 52.59375 71.296875 
L 52.59375 62.3125 
Q 48.875 64.0625 45.09375 64.984375 
Q 41.3125 65.921875 37.59375 65.921875 
Q 27.828125 65.921875 22.671875 59.328125 
Q 17.53125 52.734375 16.796875 39.40625 
Q 19.671875 43.65625 24.015625 45.921875 
Q 28.375 48.1875 33.59375 48.1875 
Q 44.578125 48.1875 50.953125 41.515625 
Q 57.328125 34.859375 57.328125 23.390625 
Q 57.328125 12.15625 50.6875 5.359375 
Q 44.046875 -1.421875 33.015625 -1.421875 
Q 20.359375 -1.421875 13.671875 8.265625 
Q 6.984375 17.96875 6.984375 36.375 
Q 6.984375 53.65625 15.1875 63.9375 
Q 23.390625 74.21875 37.203125 74.21875 
Q 40.921875 74.21875 44.703125 73.484375 
Q 48.484375 72.75 52.59375 71.296875 
z
" id="DejaVuSans-54"/>
      </defs>
      <g transform="translate(24.896875 313.243663)scale(0.1 -0.1)">
       <use xlink:href="#DejaVuSans-48"/>
       <use x="63.623047" xlink:href="#DejaVuSans-46"/>
       <use x="95.410156" xlink:href="#DejaVuSans-54"/>
      </g>
     </g>
    </g>
    <g id="ytick_4">
     <g id="line2d_10">
      <g>
       <use style="stroke:#000000;stroke-width:0.8;" x="47.8" xlink:href="#md5d419c8ad" y="269.066667"/>
      </g>
     </g>
     <g id="text_11">
      <!-- 0.7 -->
      <defs>
       <path d="M 8.203125 72.90625 
L 55.078125 72.90625 
L 55.078125 68.703125 
L 28.609375 0 
L 18.3125 0 
L 43.21875 64.59375 
L 8.203125 64.59375 
z
" id="DejaVuSans-55"/>
      </defs>
      <g transform="translate(24.896875 272.865885)scale(0.1 -0.1)">
       <use xlink:href="#DejaVuSans-48"/>
       <use x="63.623047" xlink:href="#DejaVuSans-46"/>
       <use x="95.410156" xlink:href="#DejaVuSans-55"/>
      </g>
     </g>
    </g>
    <g id="ytick_5">
     <g id="line2d_11">
      <g>
       <use style="stroke:#000000;stroke-width:0.8;" x="47.8" xlink:href="#md5d419c8ad" y="228.688889"/>
      </g>
     </g>
     <g id="text_12">
      <!-- 0.8 -->
      <defs>
       <path d="M 31.78125 34.625 
Q 24.75 34.625 20.71875 30.859375 
Q 16.703125 27.09375 16.703125 20.515625 
Q 16.703125 13.921875 20.71875 10.15625 
Q 24.75 6.390625 31.78125 6.390625 
Q 38.8125 6.390625 42.859375 10.171875 
Q 46.921875 13.96875 46.921875 20.515625 
Q 46.921875 27.09375 42.890625 30.859375 
Q 38.875 34.625 31.78125 34.625 
z
M 21.921875 38.8125 
Q 15.578125 40.375 12.03125 44.71875 
Q 8.5 49.078125 8.5 55.328125 
Q 8.5 64.0625 14.71875 69.140625 
Q 20.953125 74.21875 31.78125 74.21875 
Q 42.671875 74.21875 48.875 69.140625 
Q 55.078125 64.0625 55.078125 55.328125 
Q 55.078125 49.078125 51.53125 44.71875 
Q 48 40.375 41.703125 38.8125 
Q 48.828125 37.15625 52.796875 32.3125 
Q 56.78125 27.484375 56.78125 20.515625 
Q 56.78125 9.90625 50.3125 4.234375 
Q 43.84375 -1.421875 31.78125 -1.421875 
Q 19.734375 -1.421875 13.25 4.234375 
Q 6.78125 9.90625 6.78125 20.515625 
Q 6.78125 27.484375 10.78125 32.3125 
Q 14.796875 37.15625 21.921875 38.8125 
z
M 18.3125 54.390625 
Q 18.3125 48.734375 21.84375 45.5625 
Q 25.390625 42.390625 31.78125 42.390625 
Q 38.140625 42.390625 41.71875 45.5625 
Q 45.3125 48.734375 45.3125 54.390625 
Q 45.3125 60.0625 41.71875 63.234375 
Q 38.140625 66.40625 31.78125 66.40625 
Q 25.390625 66.40625 21.84375 63.234375 
Q 18.3125 60.0625 18.3125 54.390625 
z
" id="DejaVuSans-56"/>
      </defs>
      <g transform="translate(24.896875 232.488108)scale(0.1 -0.1)">
       <use xlink:href="#DejaVuSans-48"/>
       <use x="63.623047" xlink:href="#DejaVuSans-46"/>
       <use x="95.410156" xlink:href="#DejaVuSans-56"/>
      </g>
     </g>
    </g>
    <g id="ytick_6">
     <g id="line2d_12">
      <g>
       <use style="stroke:#000000;stroke-width:0.8;" x="47.8" xlink:href="#md5d419c8ad" y="188.311111"/>
      </g>
     </g>
     <g id="text_13">
      <!-- 0.9 -->
      <defs>
       <path d="M 10.984375 1.515625 
L 10.984375 10.5 
Q 14.703125 8.734375 18.5 7.8125 
Q 22.3125 6.890625 25.984375 6.890625 
Q 35.75 6.890625 40.890625 13.453125 
Q 46.046875 20.015625 46.78125 33.40625 
Q 43.953125 29.203125 39.59375 26.953125 
Q 35.25 24.703125 29.984375 24.703125 
Q 19.046875 24.703125 12.671875 31.3125 
Q 6.296875 37.9375 6.296875 49.421875 
Q 6.296875 60.640625 12.9375 67.421875 
Q 19.578125 74.21875 30.609375 74.21875 
Q 43.265625 74.21875 49.921875 64.515625 
Q 56.59375 54.828125 56.59375 36.375 
Q 56.59375 19.140625 48.40625 8.859375 
Q 40.234375 -1.421875 26.421875 -1.421875 
Q 22.703125 -1.421875 18.890625 -0.6875 
Q 15.09375 0.046875 10.984375 1.515625 
z
M 30.609375 32.421875 
Q 37.25 32.421875 41.125 36.953125 
Q 45.015625 41.5 45.015625 49.421875 
Q 45.015625 57.28125 41.125 61.84375 
Q 37.25 66.40625 30.609375 66.40625 
Q 23.96875 66.40625 20.09375 61.84375 
Q 16.21875 57.28125 16.21875 49.421875 
Q 16.21875 41.5 20.09375 36.953125 
Q 23.96875 32.421875 30.609375 32.421875 
z
" id="DejaVuSans-57"/>
      </defs>
      <g transform="translate(24.896875 192.11033)scale(0.1 -0.1)">
       <use xlink:href="#DejaVuSans-48"/>
       <use x="63.623047" xlink:href="#DejaVuSans-46"/>
       <use x="95.410156" xlink:href="#DejaVuSans-57"/>
      </g>
     </g>
    </g>
    <g id="ytick_7">
     <g id="line2d_13">
      <g>
       <use style="stroke:#000000;stroke-width:0.8;" x="47.8" xlink:href="#md5d419c8ad" y="147.933333"/>
      </g>
     </g>
     <g id="text_14">
      <!-- 1.0 -->
      <g transform="translate(24.896875 151.732552)scale(0.1 -0.1)">
       <use xlink:href="#DejaVuSans-49"/>
       <use x="63.623047" xlink:href="#DejaVuSans-46"/>
       <use x="95.410156" xlink:href="#DejaVuSans-48"/>
      </g>
     </g>
    </g>
    <g id="ytick_8">
     <g id="line2d_14">
      <g>
       <use style="stroke:#000000;stroke-width:0.8;" x="47.8" xlink:href="#md5d419c8ad" y="107.555556"/>
      </g>
     </g>
     <g id="text_15">
      <!-- 1.1 -->
      <g transform="translate(24.896875 111.354774)scale(0.1 -0.1)">
       <use xlink:href="#DejaVuSans-49"/>
       <use x="63.623047" xlink:href="#DejaVuSans-46"/>
       <use x="95.410156" xlink:href="#DejaVuSans-49"/>
      </g>
     </g>
    </g>
    <g id="ytick_9">
     <g id="line2d_15">
      <g>
       <use style="stroke:#000000;stroke-width:0.8;" x="47.8" xlink:href="#md5d419c8ad" y="67.177778"/>
      </g>
     </g>
     <g id="text_16">
      <!-- 1.2 -->
      <g transform="translate(24.896875 70.976997)scale(0.1 -0.1)">
       <use xlink:href="#DejaVuSans-49"/>
       <use x="63.623047" xlink:href="#DejaVuSans-46"/>
       <use x="95.410156" xlink:href="#DejaVuSans-50"/>
      </g>
     </g>
    </g>
    <g id="ytick_10">
     <g id="line2d_16">
      <g>
       <use style="stroke:#000000;stroke-width:0.8;" x="47.8" xlink:href="#md5d419c8ad" y="26.8"/>
      </g>
     </g>
     <g id="text_17">
      <!-- 1.3 -->
      <g transform="translate(24.896875 30.599219)scale(0.1 -0.1)">
       <use xlink:href="#DejaVuSans-49"/>
       <use x="63.623047" xlink:href="#DejaVuSans-46"/>
       <use x="95.410156" xlink:href="#DejaVuSans-51"/>
      </g>
     </g>
    </g>
    <g id="text_18">
     <!-- Electrochemical Signal (normalized) -->
     <defs>
      <path d="M 9.8125 72.90625 
L 55.90625 72.90625 
L 55.90625 64.59375 
L 19.671875 64.59375 
L 19.671875 43.015625 
L 54.390625 43.015625 
L 54.390625 34.71875 
L 19.671875 34.71875 
L 19.671875 8.296875 
L 56.78125 8.296875 
L 56.78125 0 
L 9.8125 0 
z
" id="DejaVuSans-69"/>
      <path d="M 9.421875 75.984375 
L 18.40625 75.984375 
L 18.40625 0 
L 9.421875 0 
z
" id="DejaVuSans-108"/>
      <path d="M 48.78125 52.59375 
L 48.78125 44.1875 
Q 44.96875 46.296875 41.140625 47.34375 
Q 37.3125 48.390625 33.40625 48.390625 
Q 24.65625 48.390625 19.8125 42.84375 
Q 14.984375 37.3125 14.984375 27.296875 
Q 14.984375 17.28125 19.8125 11.734375 
Q 24.65625 6.203125 33.40625 6.203125 
Q 37.3125 6.203125 41.140625 7.25 
Q 44.96875 8.296875 48.78125 10.40625 
L 48.78125 2.09375 
Q 45.015625 0.34375 40.984375 -0.53125 
Q 36.96875 -1.421875 32.421875 -1.421875 
Q 20.0625 -1.421875 12.78125 6.34375 
Q 5.515625 14.109375 5.515625 27.296875 
Q 5.515625 40.671875 12.859375 48.328125 
Q 20.21875 56 33.015625 56 
Q 37.15625 56 41.109375 55.140625 
Q 45.0625 54.296875 48.78125 52.59375 
z
" id="DejaVuSans-99"/>
      <path d="M 41.109375 46.296875 
Q 39.59375 47.171875 37.8125 47.578125 
Q 36.03125 48 33.890625 48 
Q 26.265625 48 22.1875 43.046875 
Q 18.109375 38.09375 18.109375 28.8125 
L 18.109375 0 
L 9.078125 0 
L 9.078125 54.6875 
L 18.109375 54.6875 
L 18.109375 46.1875 
Q 20.953125 51.171875 25.484375 53.578125 
Q 30.03125 56 36.53125 56 
Q 37.453125 56 38.578125 55.875 
Q 39.703125 55.765625 41.0625 55.515625 
z
" id="DejaVuSans-114"/>
      <path d="M 30.609375 48.390625 
Q 23.390625 48.390625 19.1875 42.75 
Q 14.984375 37.109375 14.984375 27.296875 
Q 14.984375 17.484375 19.15625 11.84375 
Q 23.34375 6.203125 30.609375 6.203125 
Q 37.796875 6.203125 41.984375 11.859375 
Q 46.1875 17.53125 46.1875 27.296875 
Q 46.1875 37.015625 41.984375 42.703125 
Q 37.796875 48.390625 30.609375 48.390625 
z
M 30.609375 56 
Q 42.328125 56 49.015625 48.375 
Q 55.71875 40.765625 55.71875 27.296875 
Q 55.71875 13.875 49.015625 6.21875 
Q 42.328125 -1.421875 30.609375 -1.421875 
Q 18.84375 -1.421875 12.171875 6.21875 
Q 5.515625 13.875 5.515625 27.296875 
Q 5.515625 40.765625 12.171875 48.375 
Q 18.84375 56 30.609375 56 
z
" id="DejaVuSans-111"/>
      <path d="M 54.890625 33.015625 
L 54.890625 0 
L 45.90625 0 
L 45.90625 32.71875 
Q 45.90625 40.484375 42.875 44.328125 
Q 39.84375 48.1875 33.796875 48.1875 
Q 26.515625 48.1875 22.3125 43.546875 
Q 18.109375 38.921875 18.109375 30.90625 
L 18.109375 0 
L 9.078125 0 
L 9.078125 75.984375 
L 18.109375 75.984375 
L 18.109375 46.1875 
Q 21.34375 51.125 25.703125 53.5625 
Q 30.078125 56 35.796875 56 
Q 45.21875 56 50.046875 50.171875 
Q 54.890625 44.34375 54.890625 33.015625 
z
" id="DejaVuSans-104"/>
      <path d="M 34.28125 27.484375 
Q 23.390625 27.484375 19.1875 25 
Q 14.984375 22.515625 14.984375 16.5 
Q 14.984375 11.71875 18.140625 8.90625 
Q 21.296875 6.109375 26.703125 6.109375 
Q 34.1875 6.109375 38.703125 11.40625 
Q 43.21875 16.703125 43.21875 25.484375 
L 43.21875 27.484375 
z
M 52.203125 31.203125 
L 52.203125 0 
L 43.21875 0 
L 43.21875 8.296875 
Q 40.140625 3.328125 35.546875 0.953125 
Q 30.953125 -1.421875 24.3125 -1.421875 
Q 15.921875 -1.421875 10.953125 3.296875 
Q 6 8.015625 6 15.921875 
Q 6 25.140625 12.171875 29.828125 
Q 18.359375 34.515625 30.609375 34.515625 
L 43.21875 34.515625 
L 43.21875 35.40625 
Q 43.21875 41.609375 39.140625 45 
Q 35.0625 48.390625 27.6875 48.390625 
Q 23 48.390625 18.546875 47.265625 
Q 14.109375 46.140625 10.015625 43.890625 
L 10.015625 52.203125 
Q 14.9375 54.109375 19.578125 55.046875 
Q 24.21875 56 28.609375 56 
Q 40.484375 56 46.34375 49.84375 
Q 52.203125 43.703125 52.203125 31.203125 
z
" id="DejaVuSans-97"/>
      <path d="M 53.515625 70.515625 
L 53.515625 60.890625 
Q 47.90625 63.578125 42.921875 64.890625 
Q 37.9375 66.21875 33.296875 66.21875 
Q 25.25 66.21875 20.875 63.09375 
Q 16.5 59.96875 16.5 54.203125 
Q 16.5 49.359375 19.40625 46.890625 
Q 22.3125 44.4375 30.421875 42.921875 
L 36.375 41.703125 
Q 47.40625 39.59375 52.65625 34.296875 
Q 57.90625 29 57.90625 20.125 
Q 57.90625 9.515625 50.796875 4.046875 
Q 43.703125 -1.421875 29.984375 -1.421875 
Q 24.8125 -1.421875 18.96875 -0.25 
Q 13.140625 0.921875 6.890625 3.21875 
L 6.890625 13.375 
Q 12.890625 10.015625 18.65625 8.296875 
Q 24.421875 6.59375 29.984375 6.59375 
Q 38.421875 6.59375 43.015625 9.90625 
Q 47.609375 13.234375 47.609375 19.390625 
Q 47.609375 24.75 44.3125 27.78125 
Q 41.015625 30.8125 33.5 32.328125 
L 27.484375 33.5 
Q 16.453125 35.6875 11.515625 40.375 
Q 6.59375 45.0625 6.59375 53.421875 
Q 6.59375 63.09375 13.40625 68.65625 
Q 20.21875 74.21875 32.171875 74.21875 
Q 37.3125 74.21875 42.625 73.28125 
Q 47.953125 72.359375 53.515625 70.515625 
z
" id="DejaVuSans-83"/>
      <path d="M 45.40625 27.984375 
Q 45.40625 37.75 41.375 43.109375 
Q 37.359375 48.484375 30.078125 48.484375 
Q 22.859375 48.484375 18.828125 43.109375 
Q 14.796875 37.75 14.796875 27.984375 
Q 14.796875 18.265625 18.828125 12.890625 
Q 22.859375 7.515625 30.078125 7.515625 
Q 37.359375 7.515625 41.375 12.890625 
Q 45.40625 18.265625 45.40625 27.984375 
z
M 54.390625 6.78125 
Q 54.390625 -7.171875 48.1875 -13.984375 
Q 42 -20.796875 29.203125 -20.796875 
Q 24.46875 -20.796875 20.265625 -20.09375 
Q 16.0625 -19.390625 12.109375 -17.921875 
L 12.109375 -9.1875 
Q 16.0625 -11.328125 19.921875 -12.34375 
Q 23.78125 -13.375 27.78125 -13.375 
Q 36.625 -13.375 41.015625 -8.765625 
Q 45.40625 -4.15625 45.40625 5.171875 
L 45.40625 9.625 
Q 42.625 4.78125 38.28125 2.390625 
Q 33.9375 0 27.875 0 
Q 17.828125 0 11.671875 7.65625 
Q 5.515625 15.328125 5.515625 27.984375 
Q 5.515625 40.671875 11.671875 48.328125 
Q 17.828125 56 27.875 56 
Q 33.9375 56 38.28125 53.609375 
Q 42.625 51.21875 45.40625 46.390625 
L 45.40625 54.6875 
L 54.390625 54.6875 
z
" id="DejaVuSans-103"/>
      <path d="M 5.515625 54.6875 
L 48.1875 54.6875 
L 48.1875 46.484375 
L 14.40625 7.171875 
L 48.1875 7.171875 
L 48.1875 0 
L 4.296875 0 
L 4.296875 8.203125 
L 38.09375 47.515625 
L 5.515625 47.515625 
z
" id="DejaVuSans-122"/>
      <path d="M 45.40625 46.390625 
L 45.40625 75.984375 
L 54.390625 75.984375 
L 54.390625 0 
L 45.40625 0 
L 45.40625 8.203125 
Q 42.578125 3.328125 38.25 0.953125 
Q 33.9375 -1.421875 27.875 -1.421875 
Q 17.96875 -1.421875 11.734375 6.484375 
Q 5.515625 14.40625 5.515625 27.296875 
Q 5.515625 40.1875 11.734375 48.09375 
Q 17.96875 56 27.875 56 
Q 33.9375 56 38.25 53.625 
Q 42.578125 51.265625 45.40625 46.390625 
z
M 14.796875 27.296875 
Q 14.796875 17.390625 18.875 11.75 
Q 22.953125 6.109375 30.078125 6.109375 
Q 37.203125 6.109375 41.296875 11.75 
Q 45.40625 17.390625 45.40625 27.296875 
Q 45.40625 37.203125 41.296875 42.84375 
Q 37.203125 48.484375 30.078125 48.484375 
Q 22.953125 48.484375 18.875 42.84375 
Q 14.796875 37.203125 14.796875 27.296875 
z
" id="DejaVuSans-100"/>
     </defs>
     <g transform="translate(18.817188 298.713281)rotate(-90)scale(0.1 -0.1)">
      <use xlink:href="#DejaVuSans-69"/>
      <use x="63.183594" xlink:href="#DejaVuSans-108"/>
      <use x="90.966797" xlink:href="#DejaVuSans-101"/>
      <use x="152.490234" xlink:href="#DejaVuSans-99"/>
      <use x="207.470703" xlink:href="#DejaVuSans-116"/>
      <use x="246.679688" xlink:href="#DejaVuSans-114"/>
      <use x="287.761719" xlink:href="#DejaVuSans-111"/>
      <use x="348.943359" xlink:href="#DejaVuSans-99"/>
      <use x="403.923828" xlink:href="#DejaVuSans-104"/>
      <use x="467.302734" xlink:href="#DejaVuSans-101"/>
      <use x="528.826172" xlink:href="#DejaVuSans-109"/>
      <use x="626.238281" xlink:href="#DejaVuSans-105"/>
      <use x="654.021484" xlink:href="#DejaVuSans-99"/>
      <use x="709.001953" xlink:href="#DejaVuSans-97"/>
      <use x="770.28125" xlink:href="#DejaVuSans-108"/>
      <use x="798.064453" xlink:href="#DejaVuSans-32"/>
      <use x="829.851562" xlink:href="#DejaVuSans-83"/>
      <use x="893.328125" xlink:href="#DejaVuSans-105"/>
      <use x="921.111328" xlink:href="#DejaVuSans-103"/>
      <use x="984.587891" xlink:href="#DejaVuSans-110"/>
      <use x="1047.966797" xlink:href="#DejaVuSans-97"/>
      <use x="1109.246094" xlink:href="#DejaVuSans-108"/>
      <use x="1137.029297" xlink:href="#DejaVuSans-32"/>
      <use x="1168.816406" xlink:href="#DejaVuSans-40"/>
      <use x="1207.830078" xlink:href="#DejaVuSans-110"/>
      <use x="1271.208984" xlink:href="#DejaVuSans-111"/>
      <use x="1332.390625" xlink:href="#DejaVuSans-114"/>
      <use x="1373.488281" xlink:href="#DejaVuSans-109"/>
      <use x="1470.900391" xlink:href="#DejaVuSans-97"/>
      <use x="1532.179688" xlink:href="#DejaVuSans-108"/>
      <use x="1559.962891" xlink:href="#DejaVuSans-105"/>
      <use x="1587.746094" xlink:href="#DejaVuSans-122"/>
      <use x="1640.236328" xlink:href="#DejaVuSans-101"/>
      <use x="1701.759766" xlink:href="#DejaVuSans-100"/>
      <use x="1765.236328" xlink:href="#DejaVuSans-41"/>
     </g>
    </g>
   </g>
   <g id="line2d_17">
    <defs>
     <path d="M 0 3 
C 0.795609 3 1.55874 2.683901 2.12132 2.12132 
C 2.683901 1.55874 3 0.795609 3 0 
C 3 -0.795609 2.683901 -1.55874 2.12132 -2.12132 
C 1.55874 -2.683901 0.795609 -3 0 -3 
C -0.795609 -3 -1.55874 -2.683901 -2.12132 -2.12132 
C -2.683901 -1.55874 -3 -0.795609 -3 0 
C -3 0.795609 -2.683901 1.55874 -2.12132 2.12132 
C -1.55874 2.683901 -0.795609 3 0 3 
z
" id="maac90e66df" style="stroke:#1e90ff;stroke-opacity:0.75;"/>
    </defs>
    <g clip-path="url(#pb60acb2470)">
     <use style="fill:#ffffff;fill-opacity:0.75;stroke:#1e90ff;stroke-opacity:0.75;" x="57.75" xlink:href="#maac90e66df" y="122.727675"/>
     <use style="fill:#ffffff;fill-opacity:0.75;stroke:#1e90ff;stroke-opacity:0.75;" x="64.383333" xlink:href="#maac90e66df" y="127.836509"/>
     <use style="fill:#ffffff;fill-opacity:0.75;stroke:#1e90ff;stroke-opacity:0.75;" x="71.016667" xlink:href="#maac90e66df" y="132.760288"/>
     <use style="fill:#ffffff;fill-opacity:0.75;stroke:#1e90ff;stroke-opacity:0.75;" x="77.65" xlink:href="#maac90e66df" y="135.098032"/>
     <use style="fill:#ffffff;fill-opacity:0.75;stroke:#1e90ff;stroke-opacity:0.75;" x="84.283333" xlink:href="#maac90e66df" y="141.074214"/>
     <use style="fill:#ffffff;fill-opacity:0.75;stroke:#1e90ff;stroke-opacity:0.75;" x="90.916667" xlink:href="#maac90e66df" y="145.013089"/>
     <use style="fill:#ffffff;fill-opacity:0.75;stroke:#1e90ff;stroke-opacity:0.75;" x="97.55" xlink:href="#maac90e66df" y="147.203417"/>
     <use style="fill:#ffffff;fill-opacity:0.75;stroke:#1e90ff;stroke-opacity:0.75;" x="104.183333" xlink:href="#maac90e66df" y="148.925698"/>
     <use style="fill:#ffffff;fill-opacity:0.75;stroke:#1e90ff;stroke-opacity:0.75;" x="110.816667" xlink:href="#maac90e66df" y="153.29385"/>
     <use style="fill:#ffffff;fill-opacity:0.75;stroke:#1e90ff;stroke-opacity:0.75;" x="117.45" xlink:href="#maac90e66df" y="154.947892"/>
     <use style="fill:#ffffff;fill-opacity:0.75;stroke:#1e90ff;stroke-opacity:0.75;" x="124.083333" xlink:href="#maac90e66df" y="157.073309"/>
     <use style="fill:#ffffff;fill-opacity:0.75;stroke:#1e90ff;stroke-opacity:0.75;" x="130.716667" xlink:href="#maac90e66df" y="161.119278"/>
     <use style="fill:#ffffff;fill-opacity:0.75;stroke:#1e90ff;stroke-opacity:0.75;" x="137.35" xlink:href="#maac90e66df" y="161.651508"/>
     <use style="fill:#ffffff;fill-opacity:0.75;stroke:#1e90ff;stroke-opacity:0.75;" x="143.983333" xlink:href="#maac90e66df" y="164.41055"/>
     <use style="fill:#ffffff;fill-opacity:0.75;stroke:#1e90ff;stroke-opacity:0.75;" x="150.616667" xlink:href="#maac90e66df" y="165.864689"/>
     <use style="fill:#ffffff;fill-opacity:0.75;stroke:#1e90ff;stroke-opacity:0.75;" x="157.25" xlink:href="#maac90e66df" y="166.236047"/>
     <use style="fill:#ffffff;fill-opacity:0.75;stroke:#1e90ff;stroke-opacity:0.75;" x="163.883333" xlink:href="#maac90e66df" y="167.212119"/>
     <use style="fill:#ffffff;fill-opacity:0.75;stroke:#1e90ff;stroke-opacity:0.75;" x="170.516667" xlink:href="#maac90e66df" y="169.777834"/>
     <use style="fill:#ffffff;fill-opacity:0.75;stroke:#1e90ff;stroke-opacity:0.75;" x="177.15" xlink:href="#maac90e66df" y="170.846551"/>
     <use style="fill:#ffffff;fill-opacity:0.75;stroke:#1e90ff;stroke-opacity:0.75;" x="183.783333" xlink:href="#maac90e66df" y="171.651822"/>
     <use style="fill:#ffffff;fill-opacity:0.75;stroke:#1e90ff;stroke-opacity:0.75;" x="190.416667" xlink:href="#maac90e66df" y="174.311181"/>
     <use style="fill:#ffffff;fill-opacity:0.75;stroke:#1e90ff;stroke-opacity:0.75;" x="197.05" xlink:href="#maac90e66df" y="174.647967"/>
     <use style="fill:#ffffff;fill-opacity:0.75;stroke:#1e90ff;stroke-opacity:0.75;" x="203.683333" xlink:href="#maac90e66df" y="175.246206"/>
     <use style="fill:#ffffff;fill-opacity:0.75;stroke:#1e90ff;stroke-opacity:0.75;" x="210.316667" xlink:href="#maac90e66df" y="176.309356"/>
     <use style="fill:#ffffff;fill-opacity:0.75;stroke:#1e90ff;stroke-opacity:0.75;" x="216.95" xlink:href="#maac90e66df" y="176.844491"/>
     <use style="fill:#ffffff;fill-opacity:0.75;stroke:#1e90ff;stroke-opacity:0.75;" x="223.583333" xlink:href="#maac90e66df" y="177.226081"/>
     <use style="fill:#ffffff;fill-opacity:0.75;stroke:#1e90ff;stroke-opacity:0.75;" x="230.216667" xlink:href="#maac90e66df" y="179.983911"/>
     <use style="fill:#ffffff;fill-opacity:0.75;stroke:#1e90ff;stroke-opacity:0.75;" x="236.85" xlink:href="#maac90e66df" y="180.403899"/>
     <use style="fill:#ffffff;fill-opacity:0.75;stroke:#1e90ff;stroke-opacity:0.75;" x="243.483333" xlink:href="#maac90e66df" y="182.469058"/>
     <use style="fill:#ffffff;fill-opacity:0.75;stroke:#1e90ff;stroke-opacity:0.75;" x="250.116667" xlink:href="#maac90e66df" y="185.722788"/>
     <use style="fill:#ffffff;fill-opacity:0.75;stroke:#1e90ff;stroke-opacity:0.75;" x="256.75" xlink:href="#maac90e66df" y="189.210217"/>
     <use style="fill:#ffffff;fill-opacity:0.75;stroke:#1e90ff;stroke-opacity:0.75;" x="263.383333" xlink:href="#maac90e66df" y="193.860073"/>
     <use style="fill:#ffffff;fill-opacity:0.75;stroke:#1e90ff;stroke-opacity:0.75;" x="270.016667" xlink:href="#maac90e66df" y="199.741306"/>
     <use style="fill:#ffffff;fill-opacity:0.75;stroke:#1e90ff;stroke-opacity:0.75;" x="276.65" xlink:href="#maac90e66df" y="208.197781"/>
     <use style="fill:#ffffff;fill-opacity:0.75;stroke:#1e90ff;stroke-opacity:0.75;" x="283.283333" xlink:href="#maac90e66df" y="219.966291"/>
     <use style="fill:#ffffff;fill-opacity:0.75;stroke:#1e90ff;stroke-opacity:0.75;" x="289.916667" xlink:href="#maac90e66df" y="230.066868"/>
     <use style="fill:#ffffff;fill-opacity:0.75;stroke:#1e90ff;stroke-opacity:0.75;" x="296.55" xlink:href="#maac90e66df" y="240.019602"/>
     <use style="fill:#ffffff;fill-opacity:0.75;stroke:#1e90ff;stroke-opacity:0.75;" x="303.183333" xlink:href="#maac90e66df" y="250.668343"/>
     <use style="fill:#ffffff;fill-opacity:0.75;stroke:#1e90ff;stroke-opacity:0.75;" x="309.816667" xlink:href="#maac90e66df" y="258.290839"/>
     <use style="fill:#ffffff;fill-opacity:0.75;stroke:#1e90ff;stroke-opacity:0.75;" x="316.45" xlink:href="#maac90e66df" y="266.118989"/>
     <use style="fill:#ffffff;fill-opacity:0.75;stroke:#1e90ff;stroke-opacity:0.75;" x="323.083333" xlink:href="#maac90e66df" y="271.768436"/>
     <use style="fill:#ffffff;fill-opacity:0.75;stroke:#1e90ff;stroke-opacity:0.75;" x="329.716667" xlink:href="#maac90e66df" y="276.280594"/>
     <use style="fill:#ffffff;fill-opacity:0.75;stroke:#1e90ff;stroke-opacity:0.75;" x="336.35" xlink:href="#maac90e66df" y="279.673171"/>
     <use style="fill:#ffffff;fill-opacity:0.75;stroke:#1e90ff;stroke-opacity:0.75;" x="342.983333" xlink:href="#maac90e66df" y="283.232361"/>
     <use style="fill:#ffffff;fill-opacity:0.75;stroke:#1e90ff;stroke-opacity:0.75;" x="349.616667" xlink:href="#maac90e66df" y="284.872567"/>
     <use style="fill:#ffffff;fill-opacity:0.75;stroke:#1e90ff;stroke-opacity:0.75;" x="356.25" xlink:href="#maac90e66df" y="287.46984"/>
     <use style="fill:#ffffff;fill-opacity:0.75;stroke:#1e90ff;stroke-opacity:0.75;" x="362.883333" xlink:href="#maac90e66df" y="290.267567"/>
     <use style="fill:#ffffff;fill-opacity:0.75;stroke:#1e90ff;stroke-opacity:0.75;" x="369.516667" xlink:href="#maac90e66df" y="292.434251"/>
     <use style="fill:#ffffff;fill-opacity:0.75;stroke:#1e90ff;stroke-opacity:0.75;" x="376.15" xlink:href="#maac90e66df" y="293.460094"/>
     <use style="fill:#ffffff;fill-opacity:0.75;stroke:#1e90ff;stroke-opacity:0.75;" x="382.783333" xlink:href="#maac90e66df" y="296.138756"/>
     <use style="fill:#ffffff;fill-opacity:0.75;stroke:#1e90ff;stroke-opacity:0.75;" x="389.416667" xlink:href="#maac90e66df" y="299.161468"/>
     <use style="fill:#ffffff;fill-opacity:0.75;stroke:#1e90ff;stroke-opacity:0.75;" x="396.05" xlink:href="#maac90e66df" y="300.486794"/>
     <use style="fill:#ffffff;fill-opacity:0.75;stroke:#1e90ff;stroke-opacity:0.75;" x="402.683333" xlink:href="#maac90e66df" y="303.39946"/>
     <use style="fill:#ffffff;fill-opacity:0.75;stroke:#1e90ff;stroke-opacity:0.75;" x="409.316667" xlink:href="#maac90e66df" y="306.516675"/>
     <use style="fill:#ffffff;fill-opacity:0.75;stroke:#1e90ff;stroke-opacity:0.75;" x="415.95" xlink:href="#maac90e66df" y="308.144912"/>
     <use style="fill:#ffffff;fill-opacity:0.75;stroke:#1e90ff;stroke-opacity:0.75;" x="422.583333" xlink:href="#maac90e66df" y="309.992434"/>
     <use style="fill:#ffffff;fill-opacity:0.75;stroke:#1e90ff;stroke-opacity:0.75;" x="429.216667" xlink:href="#maac90e66df" y="311.320573"/>
     <use style="fill:#ffffff;fill-opacity:0.75;stroke:#1e90ff;stroke-opacity:0.75;" x="435.85" xlink:href="#maac90e66df" y="313.69055"/>
     <use style="fill:#ffffff;fill-opacity:0.75;stroke:#1e90ff;stroke-opacity:0.75;" x="442.483333" xlink:href="#maac90e66df" y="315.434505"/>
     <use style="fill:#ffffff;fill-opacity:0.75;stroke:#1e90ff;stroke-opacity:0.75;" x="449.116667" xlink:href="#maac90e66df" y="316.302747"/>
     <use style="fill:#ffffff;fill-opacity:0.75;stroke:#1e90ff;stroke-opacity:0.75;" x="455.75" xlink:href="#maac90e66df" y="317.465136"/>
     <use style="fill:#ffffff;fill-opacity:0.75;stroke:#1e90ff;stroke-opacity:0.75;" x="462.383333" xlink:href="#maac90e66df" y="318.482811"/>
     <use style="fill:#ffffff;fill-opacity:0.75;stroke:#1e90ff;stroke-opacity:0.75;" x="469.016667" xlink:href="#maac90e66df" y="318.778146"/>
     <use style="fill:#ffffff;fill-opacity:0.75;stroke:#1e90ff;stroke-opacity:0.75;" x="475.65" xlink:href="#maac90e66df" y="320.244487"/>
     <use style="fill:#ffffff;fill-opacity:0.75;stroke:#1e90ff;stroke-opacity:0.75;" x="482.283333" xlink:href="#maac90e66df" y="322.730285"/>
     <use style="fill:#ffffff;fill-opacity:0.75;stroke:#1e90ff;stroke-opacity:0.75;" x="488.916667" xlink:href="#maac90e66df" y="322.85553"/>
     <use style="fill:#ffffff;fill-opacity:0.75;stroke:#1e90ff;stroke-opacity:0.75;" x="495.55" xlink:href="#maac90e66df" y="322.304325"/>
     <use style="fill:#ffffff;fill-opacity:0.75;stroke:#1e90ff;stroke-opacity:0.75;" x="502.183333" xlink:href="#maac90e66df" y="323.13532"/>
     <use style="fill:#ffffff;fill-opacity:0.75;stroke:#1e90ff;stroke-opacity:0.75;" x="508.816667" xlink:href="#maac90e66df" y="323.243287"/>
     <use style="fill:#ffffff;fill-opacity:0.75;stroke:#1e90ff;stroke-opacity:0.75;" x="515.45" xlink:href="#maac90e66df" y="324.130718"/>
     <use style="fill:#ffffff;fill-opacity:0.75;stroke:#1e90ff;stroke-opacity:0.75;" x="522.083333" xlink:href="#maac90e66df" y="325.879844"/>
     <use style="fill:#ffffff;fill-opacity:0.75;stroke:#1e90ff;stroke-opacity:0.75;" x="528.716667" xlink:href="#maac90e66df" y="325.165593"/>
     <use style="fill:#ffffff;fill-opacity:0.75;stroke:#1e90ff;stroke-opacity:0.75;" x="535.35" xlink:href="#maac90e66df" y="326.815463"/>
     <use style="fill:#ffffff;fill-opacity:0.75;stroke:#1e90ff;stroke-opacity:0.75;" x="541.983333" xlink:href="#maac90e66df" y="327.48367"/>
     <use style="fill:#ffffff;fill-opacity:0.75;stroke:#1e90ff;stroke-opacity:0.75;" x="548.616667" xlink:href="#maac90e66df" y="327.295656"/>
    </g>
   </g>
   <g id="line2d_18">
    <path clip-path="url(#pb60acb2470)" d="M 57.75 123.101462 
L 63.339888 127.137236 
L 68.929775 130.965205 
L 74.519663 134.618678 
L 80.109551 138.099364 
L 85.699438 141.370912 
L 91.289326 144.353214 
L 96.879213 146.83226 
L 102.469101 149.367935 
L 108.058989 151.724102 
L 113.648876 153.950303 
L 119.238764 156.157382 
L 124.828652 158.334232 
L 130.418539 160.05841 
L 136.008427 161.835886 
L 141.598315 163.414087 
L 147.188202 164.819535 
L 152.77809 166.043868 
L 158.367978 167.178549 
L 163.957865 168.333618 
L 169.547753 169.501753 
L 175.13764 170.680793 
L 180.727528 171.871699 
L 186.317416 173.016151 
L 191.907303 174.010193 
L 197.497191 174.840945 
L 203.087079 175.60654 
L 208.676966 176.362058 
L 214.266854 177.093894 
L 219.856742 177.870456 
L 225.446629 178.768463 
L 231.036517 179.822177 
L 236.626404 181.813445 
L 242.216292 183.667461 
L 247.80618 185.925461 
L 253.396067 188.707358 
L 258.985955 192.2661 
L 264.575843 196.827947 
L 270.16573 202.551558 
L 275.755618 210.172602 
L 281.345506 217.627546 
L 286.935393 225.72499 
L 292.525281 234.145862 
L 298.115169 242.498779 
L 303.705056 250.39821 
L 309.294944 256.404126 
L 314.884831 262.675661 
L 320.474719 268.15941 
L 326.064607 272.80309 
L 331.654494 276.665061 
L 337.244382 279.886735 
L 342.83427 282.278494 
L 348.424157 284.728912 
L 354.014045 286.909881 
L 359.603933 288.912065 
L 365.19382 290.809592 
L 370.783708 292.64092 
L 376.373596 294.454511 
L 381.963483 296.38578 
L 387.553371 298.299239 
L 393.143258 300.286044 
L 398.733146 302.323468 
L 404.323034 304.323054 
L 409.912921 306.238628 
L 415.502809 307.910769 
L 421.092697 309.619511 
L 426.682584 311.21782 
L 432.272472 312.699934 
L 437.86236 314.081953 
L 443.452247 315.311068 
L 449.042135 316.303204 
L 454.632022 317.306411 
L 460.22191 318.254703 
L 465.811798 319.189112 
L 471.401685 320.123284 
L 476.991573 321.014348 
L 482.581461 321.767111 
L 488.171348 322.275558 
L 493.761236 322.805123 
L 499.351124 323.246726 
L 504.941011 323.637014 
L 510.530899 324.098821 
L 516.120787 324.698732 
L 521.710674 325.279275 
L 527.300562 325.881142 
L 532.890449 326.451691 
L 538.480337 326.916546 
L 544.070225 327.125474 
L 549.660112 327.611585 
L 555.25 328.097696 
" style="fill:none;stroke:#4169e1;stroke-linecap:square;stroke-opacity:0.7;stroke-width:2;"/>
   </g>
   <g id="line2d_19">
    <path clip-path="url(#pb60acb2470)" d="M 57.75 209.264585 
L 63.339888 216.862298 
L 68.929775 224.17723 
L 74.519663 231.20938 
L 80.109551 237.958748 
L 85.699438 244.425335 
L 91.289326 250.60914 
L 96.879213 256.510164 
L 102.469101 262.128406 
L 108.058989 267.463866 
L 113.648876 272.516545 
L 119.238764 277.286442 
L 124.828652 281.773557 
L 130.418539 285.977891 
L 136.008427 289.899444 
L 141.598315 293.538214 
L 147.188202 296.840566 
L 152.77809 300.236976 
L 158.367978 303.438795 
L 163.957865 306.468086 
L 169.547753 309.356015 
L 175.13764 312.157148 
L 180.727528 314.860621 
L 186.317416 317.225754 
L 191.907303 319.431835 
L 197.497191 320.508086 
L 203.087079 320.07879 
L 208.676966 317.775064 
L 214.266854 313.236739 
L 219.856742 305.925383 
L 225.446629 295.251535 
L 231.036517 281.887825 
L 236.626404 266.065751 
L 242.216292 248.168175 
L 247.80618 228.792377 
L 253.396067 208.755469 
L 258.985955 188.847681 
L 264.575843 170.25942 
L 270.16573 153.878818 
L 275.755618 140.48681 
L 281.345506 130.669425 
L 286.935393 124.80255 
L 292.525281 123.101462 
L 298.115169 125.632935 
L 303.705056 132.146457 
L 309.294944 142.241825 
L 314.884831 155.326359 
L 320.474719 170.592291 
L 326.064607 187.552646 
L 331.654494 205.046494 
L 337.244382 222.200858 
L 342.83427 238.08131 
L 348.424157 251.923753 
L 354.014045 263.227364 
L 359.603933 271.786787 
L 365.19382 278.165639 
L 370.783708 282.313116 
L 376.373596 284.711797 
L 381.963483 285.962193 
L 387.553371 286.665462 
L 393.143258 287.31741 
L 398.733146 287.512769 
L 404.323034 287.851127 
L 409.912921 288.606816 
L 415.502809 289.86914 
L 421.092697 291.657353 
L 426.682584 293.987593 
L 432.272472 296.624906 
L 437.86236 299.604876 
L 443.452247 302.802102 
L 449.042135 306.063045 
L 454.632022 309.219476 
L 460.22191 312.069722 
L 465.811798 314.68891 
L 471.401685 317.060745 
L 476.991573 318.960592 
L 482.581461 320.681142 
L 488.171348 322.222393 
L 493.761236 323.584348 
L 499.351124 324.767005 
L 504.941011 325.770364 
L 510.530899 326.594425 
L 516.120787 327.239189 
L 521.710674 327.704656 
L 527.300562 327.990825 
L 532.890449 328.097696 
L 538.480337 328.025269 
L 544.070225 327.773546 
L 549.660112 327.342524 
L 555.25 326.732205 
" style="fill:none;stroke:#ff6347;stroke-dasharray:5.55,2.4;stroke-dashoffset:0;stroke-opacity:0.8;stroke-width:1.5;"/>
   </g>
   <g id="line2d_20">
    <path clip-path="url(#pb60acb2470)" d="M 57.75 141.19304 
L 63.339888 145.478578 
L 68.929775 149.396608 
L 74.519663 152.992459 
L 80.109551 156.304302 
L 85.699438 159.364505 
L 91.289326 162.200699 
L 96.879213 164.836612 
L 102.469101 167.292735 
L 108.058989 169.586855 
L 113.648876 171.73449 
L 119.238764 173.749236 
L 124.828652 175.643056 
L 130.418539 177.426521 
L 136.008427 179.109002 
L 141.598315 180.698842 
L 147.188202 182.203486 
L 152.77809 183.629603 
L 158.367978 184.983186 
L 163.957865 186.26963 
L 169.547753 187.49381 
L 175.13764 188.660139 
L 180.727528 189.772624 
L 186.317416 190.834909 
L 191.907303 191.850317 
L 197.497191 192.821883 
L 203.087079 193.752388 
L 208.676966 194.64438 
L 214.266854 195.500202 
L 219.856742 196.322011 
L 225.446629 197.111793 
L 231.036517 197.871387 
L 236.626404 198.60249 
L 242.216292 199.306675 
L 247.80618 199.985403 
L 253.396067 200.640029 
L 258.985955 201.271815 
L 264.575843 201.881936 
L 270.16573 202.471487 
L 275.755618 203.041491 
L 281.345506 203.592904 
L 286.935393 204.126622 
L 292.525281 204.643483 
L 298.115169 205.144273 
L 303.705056 205.62973 
L 309.294944 206.100547 
L 314.884831 206.557378 
L 320.474719 207.000835 
L 326.064607 207.431499 
L 331.654494 207.849914 
L 337.244382 208.256596 
L 342.83427 208.652032 
L 348.424157 209.036681 
L 354.014045 209.41098 
L 359.603933 209.775339 
L 365.19382 210.130151 
L 370.783708 210.475786 
L 376.373596 210.812594 
L 381.963483 211.140911 
L 387.553371 211.461052 
L 393.143258 211.77332 
L 398.733146 212.078001 
L 404.323034 212.375369 
L 409.912921 212.665684 
L 415.502809 212.949194 
L 421.092697 213.226135 
L 426.682584 213.496733 
L 432.272472 213.761204 
L 437.86236 214.019753 
L 443.452247 214.272577 
L 449.042135 214.519864 
L 454.632022 214.761794 
L 460.22191 214.998539 
L 465.811798 215.230264 
L 471.401685 215.457127 
L 476.991573 215.67928 
L 482.581461 215.896867 
L 488.171348 216.110028 
L 493.761236 216.318897 
L 499.351124 216.523602 
L 504.941011 216.724267 
L 510.530899 216.921009 
L 516.120787 217.113943 
L 521.710674 217.303178 
L 527.300562 217.488819 
L 532.890449 217.670969 
L 538.480337 217.849724 
L 544.070225 218.025178 
L 549.660112 218.197423 
L 555.25 218.366545 
" style="fill:none;stroke:#ff00ff;stroke-dasharray:7.4,3.2;stroke-dashoffset:0;stroke-opacity:0.7;stroke-width:2;"/>
   </g>
   <g id="line2d_21">
    <path clip-path="url(#pb60acb2470)" d="M 264.401882 433 
L 264.401882 -1 
" style="fill:none;stroke:#000000;stroke-dasharray:12.8,3.2,2,3.2;stroke-dashoffset:0;stroke-opacity:0.7;stroke-width:2;"/>
   </g>
   <g id="line2d_22">
    <path clip-path="url(#pb60acb2470)" d="M 195.944444 320.508086 
L 289.916667 320.508086 
" style="fill:none;stroke:#32cd32;stroke-linecap:square;"/>
   </g>
   <g id="line2d_23">
    <path clip-path="url(#pb60acb2470)" style="fill:none;stroke:#ff7f0e;stroke-linecap:square;stroke-width:1.5;"/>
   </g>
   <g id="line2d_24">
    <path clip-path="url(#pb60acb2470)" d="M 247.622183 185.925461 
L 347.122183 185.925461 
" style="fill:none;stroke:#008080;stroke-linecap:square;"/>
   </g>
   <g id="patch_3">
    <path d="M 47.8 390.2 
L 47.8 26.8 
" style="fill:none;stroke:#000000;stroke-linecap:square;stroke-linejoin:miter;stroke-width:0.8;"/>
   </g>
   <g id="patch_4">
    <path d="M 565.2 390.2 
L 565.2 26.8 
" style="fill:none;stroke:#000000;stroke-linecap:square;stroke-linejoin:miter;stroke-width:0.8;"/>
   </g>
   <g id="patch_5">
    <path d="M 47.8 390.2 
L 565.2 390.2 
" style="fill:none;stroke:#000000;stroke-linecap:square;stroke-linejoin:miter;stroke-width:0.8;"/>
   </g>
   <g id="patch_6">
    <path d="M 47.8 26.8 
L 565.2 26.8 
" style="fill:none;stroke:#000000;stroke-linecap:square;stroke-linejoin:miter;stroke-width:0.8;"/>
   </g>
   <g id="text_19">
    <!-- Ct: 15.4' -->
    <defs>
     <path d="M 64.40625 67.28125 
L 64.40625 56.890625 
Q 59.421875 61.53125 53.78125 63.8125 
Q 48.140625 66.109375 41.796875 66.109375 
Q 29.296875 66.109375 22.65625 58.46875 
Q 16.015625 50.828125 16.015625 36.375 
Q 16.015625 21.96875 22.65625 14.328125 
Q 29.296875 6.6875 41.796875 6.6875 
Q 48.140625 6.6875 53.78125 8.984375 
Q 59.421875 11.28125 64.40625 15.921875 
L 64.40625 5.609375 
Q 59.234375 2.09375 53.4375 0.328125 
Q 47.65625 -1.421875 41.21875 -1.421875 
Q 24.65625 -1.421875 15.125 8.703125 
Q 5.609375 18.84375 5.609375 36.375 
Q 5.609375 53.953125 15.125 64.078125 
Q 24.65625 74.21875 41.21875 74.21875 
Q 47.75 74.21875 53.53125 72.484375 
Q 59.328125 70.75 64.40625 67.28125 
z
" id="DejaVuSans-67"/>
     <path d="M 11.71875 12.40625 
L 22.015625 12.40625 
L 22.015625 0 
L 11.71875 0 
z
M 11.71875 51.703125 
L 22.015625 51.703125 
L 22.015625 39.3125 
L 11.71875 39.3125 
z
" id="DejaVuSans-58"/>
     <path d="M 17.921875 72.90625 
L 17.921875 45.796875 
L 9.625 45.796875 
L 9.625 72.90625 
z
" id="DejaVuSans-39"/>
    </defs>
    <g transform="translate(269.376882 370.011111)scale(0.14 -0.14)">
     <use xlink:href="#DejaVuSans-67"/>
     <use x="69.824219" xlink:href="#DejaVuSans-116"/>
     <use x="109.033203" xlink:href="#DejaVuSans-58"/>
     <use x="142.724609" xlink:href="#DejaVuSans-32"/>
     <use x="174.511719" xlink:href="#DejaVuSans-49"/>
     <use x="238.134766" xlink:href="#DejaVuSans-53"/>
     <use x="301.757812" xlink:href="#DejaVuSans-46"/>
     <use x="333.544922" xlink:href="#DejaVuSans-52"/>
     <use x="397.167969" xlink:href="#DejaVuSans-39"/>
    </g>
   </g>
   <g id="patch_7">
    <path d="M 289.916667 126.216575 
Q 289.916667 221.802949 289.916667 317.389322 
" style="fill:none;stroke:#32cd32;stroke-linecap:round;"/>
    <path d="M 287.916667 130.216575 
L 289.916667 126.216575 
L 291.916667 130.216575 
" style="fill:none;stroke:#32cd32;stroke-linecap:round;"/>
    <path d="M 291.916667 313.389322 
L 289.916667 317.389322 
L 287.916667 313.389322 
" style="fill:none;stroke:#32cd32;stroke-linecap:round;"/>
   </g>
   <g id="text_20">
    <!-- Prominence: 1.52 -->
    <defs>
     <path d="M 19.671875 64.796875 
L 19.671875 37.40625 
L 32.078125 37.40625 
Q 38.96875 37.40625 42.71875 40.96875 
Q 46.484375 44.53125 46.484375 51.125 
Q 46.484375 57.671875 42.71875 61.234375 
Q 38.96875 64.796875 32.078125 64.796875 
z
M 9.8125 72.90625 
L 32.078125 72.90625 
Q 44.34375 72.90625 50.609375 67.359375 
Q 56.890625 61.8125 56.890625 51.125 
Q 56.890625 40.328125 50.609375 34.8125 
Q 44.34375 29.296875 32.078125 29.296875 
L 19.671875 29.296875 
L 19.671875 0 
L 9.8125 0 
z
" id="DejaVuSans-80"/>
    </defs>
    <g transform="translate(289.916667 115.025907)scale(0.14 -0.14)">
     <use xlink:href="#DejaVuSans-80"/>
     <use x="60.287109" xlink:href="#DejaVuSans-114"/>
     <use x="101.369141" xlink:href="#DejaVuSans-111"/>
     <use x="162.550781" xlink:href="#DejaVuSans-109"/>
     <use x="259.962891" xlink:href="#DejaVuSans-105"/>
     <use x="287.746094" xlink:href="#DejaVuSans-110"/>
     <use x="351.125" xlink:href="#DejaVuSans-101"/>
     <use x="412.648438" xlink:href="#DejaVuSans-110"/>
     <use x="476.027344" xlink:href="#DejaVuSans-99"/>
     <use x="531.007812" xlink:href="#DejaVuSans-101"/>
     <use x="592.53125" xlink:href="#DejaVuSans-58"/>
     <use x="626.222656" xlink:href="#DejaVuSans-32"/>
     <use x="658.009766" xlink:href="#DejaVuSans-49"/>
     <use x="721.632812" xlink:href="#DejaVuSans-46"/>
     <use x="753.419922" xlink:href="#DejaVuSans-53"/>
     <use x="817.042969" xlink:href="#DejaVuSans-50"/>
    </g>
   </g>
   <g id="patch_8">
    <path d="M 347.122183 189.042601 
Q 347.122183 235.326731 347.122183 281.610861 
" style="fill:none;stroke:#008080;stroke-linecap:round;"/>
    <path d="M 345.122183 193.042601 
L 347.122183 189.042601 
L 349.122183 193.042601 
" style="fill:none;stroke:#008080;stroke-linecap:round;"/>
    <path d="M 349.122183 277.610861 
L 347.122183 281.610861 
L 345.122183 277.610861 
" style="fill:none;stroke:#008080;stroke-linecap:round;"/>
   </g>
   <g id="text_21">
    <!-- SD@5min: 0.24 -->
    <defs>
     <path d="M 19.671875 64.796875 
L 19.671875 8.109375 
L 31.59375 8.109375 
Q 46.6875 8.109375 53.6875 14.9375 
Q 60.6875 21.78125 60.6875 36.53125 
Q 60.6875 51.171875 53.6875 57.984375 
Q 46.6875 64.796875 31.59375 64.796875 
z
M 9.8125 72.90625 
L 30.078125 72.90625 
Q 51.265625 72.90625 61.171875 64.09375 
Q 71.09375 55.28125 71.09375 36.53125 
Q 71.09375 17.671875 61.125 8.828125 
Q 51.171875 0 30.078125 0 
L 9.8125 0 
z
" id="DejaVuSans-68"/>
     <path d="M 37.203125 26.21875 
Q 37.203125 19.234375 40.671875 15.25 
Q 44.140625 11.28125 50.203125 11.28125 
Q 56.203125 11.28125 59.640625 15.28125 
Q 63.09375 19.28125 63.09375 26.21875 
Q 63.09375 33.0625 59.578125 37.078125 
Q 56.0625 41.109375 50.09375 41.109375 
Q 44.1875 41.109375 40.6875 37.109375 
Q 37.203125 33.109375 37.203125 26.21875 
z
M 63.8125 11.625 
Q 60.890625 7.859375 57.109375 6.078125 
Q 53.328125 4.296875 48.296875 4.296875 
Q 39.890625 4.296875 34.640625 10.375 
Q 29.390625 16.453125 29.390625 26.21875 
Q 29.390625 35.984375 34.65625 42.078125 
Q 39.9375 48.1875 48.296875 48.1875 
Q 53.328125 48.1875 57.125 46.359375 
Q 60.9375 44.53125 63.8125 40.828125 
L 63.8125 47.21875 
L 70.796875 47.21875 
L 70.796875 11.28125 
Q 77.9375 12.359375 81.953125 17.796875 
Q 85.984375 23.25 85.984375 31.890625 
Q 85.984375 37.109375 84.4375 41.703125 
Q 82.90625 46.296875 79.78125 50.203125 
Q 74.703125 56.59375 67.40625 59.984375 
Q 60.109375 63.375 51.515625 63.375 
Q 45.515625 63.375 39.984375 61.78125 
Q 34.46875 60.203125 29.78125 57.078125 
Q 22.125 52.09375 17.796875 44.015625 
Q 13.484375 35.9375 13.484375 26.515625 
Q 13.484375 18.75 16.28125 11.953125 
Q 19.09375 5.171875 24.421875 0 
Q 29.546875 -5.078125 36.28125 -7.734375 
Q 43.015625 -10.40625 50.6875 -10.40625 
Q 56.984375 -10.40625 63.0625 -8.28125 
Q 69.140625 -6.15625 74.21875 -2.203125 
L 78.609375 -7.625 
Q 72.515625 -12.359375 65.3125 -14.875 
Q 58.109375 -17.390625 50.6875 -17.390625 
Q 41.65625 -17.390625 33.640625 -14.1875 
Q 25.640625 -10.984375 19.390625 -4.890625 
Q 13.140625 1.21875 9.859375 9.25 
Q 6.59375 17.28125 6.59375 26.515625 
Q 6.59375 35.40625 9.90625 43.453125 
Q 13.234375 51.515625 19.390625 57.625 
Q 25.6875 63.8125 33.9375 67.109375 
Q 42.1875 70.40625 51.421875 70.40625 
Q 61.765625 70.40625 70.625 66.15625 
Q 79.5 61.921875 85.5 54.109375 
Q 89.15625 49.3125 91.078125 43.703125 
Q 93.015625 38.09375 93.015625 32.078125 
Q 93.015625 19.234375 85.25 11.8125 
Q 77.484375 4.390625 63.8125 4.109375 
z
" id="DejaVuSans-64"/>
    </defs>
    <g transform="translate(351.102183 276.653356)scale(0.14 -0.14)">
     <use xlink:href="#DejaVuSans-83"/>
     <use x="63.476562" xlink:href="#DejaVuSans-68"/>
     <use x="140.478516" xlink:href="#DejaVuSans-64"/>
     <use x="240.478516" xlink:href="#DejaVuSans-53"/>
     <use x="304.101562" xlink:href="#DejaVuSans-109"/>
     <use x="401.513672" xlink:href="#DejaVuSans-105"/>
     <use x="429.296875" xlink:href="#DejaVuSans-110"/>
     <use x="492.675781" xlink:href="#DejaVuSans-58"/>
     <use x="526.367188" xlink:href="#DejaVuSans-32"/>
     <use x="558.154297" xlink:href="#DejaVuSans-48"/>
     <use x="621.777344" xlink:href="#DejaVuSans-46"/>
     <use x="653.564453" xlink:href="#DejaVuSans-50"/>
     <use x="717.1875" xlink:href="#DejaVuSans-52"/>
    </g>
   </g>
   <g id="text_22">
    <!-- Positive Curve -->
    <defs>
     <path d="M 2.984375 54.6875 
L 12.5 54.6875 
L 29.59375 8.796875 
L 46.6875 54.6875 
L 56.203125 54.6875 
L 35.6875 0 
L 23.484375 0 
z
" id="DejaVuSans-118"/>
    </defs>
    <g transform="translate(263.550312 20.8)scale(0.12 -0.12)">
     <use xlink:href="#DejaVuSans-80"/>
     <use x="60.255859" xlink:href="#DejaVuSans-111"/>
     <use x="121.4375" xlink:href="#DejaVuSans-115"/>
     <use x="173.537109" xlink:href="#DejaVuSans-105"/>
     <use x="201.320312" xlink:href="#DejaVuSans-116"/>
     <use x="240.529297" xlink:href="#DejaVuSans-105"/>
     <use x="268.3125" xlink:href="#DejaVuSans-118"/>
     <use x="327.492188" xlink:href="#DejaVuSans-101"/>
     <use x="389.015625" xlink:href="#DejaVuSans-32"/>
     <use x="420.802734" xlink:href="#DejaVuSans-67"/>
     <use x="490.626953" xlink:href="#DejaVuSans-117"/>
     <use x="554.005859" xlink:href="#DejaVuSans-114"/>
     <use x="595.119141" xlink:href="#DejaVuSans-118"/>
     <use x="654.298828" xlink:href="#DejaVuSans-101"/>
    </g>
   </g>
   <g id="legend_1">
    <g id="patch_9">
     <path d="M 452.414062 93.5125 
L 558.2 93.5125 
Q 560.2 93.5125 560.2 91.5125 
L 560.2 33.8 
Q 560.2 31.8 558.2 31.8 
L 452.414062 31.8 
Q 450.414062 31.8 450.414062 33.8 
L 450.414062 91.5125 
Q 450.414062 93.5125 452.414062 93.5125 
z
" style="fill:#ffffff;opacity:0.8;stroke:#cccccc;stroke-linejoin:miter;"/>
    </g>
    <g id="line2d_25"/>
    <g id="line2d_26">
     <g>
      <use style="fill:#ffffff;fill-opacity:0.75;stroke:#1e90ff;stroke-opacity:0.75;" x="464.414062" xlink:href="#maac90e66df" y="39.898438"/>
     </g>
    </g>
    <g id="text_23">
     <!-- Raw Data -->
     <defs>
      <path d="M 44.390625 34.1875 
Q 47.5625 33.109375 50.5625 29.59375 
Q 53.5625 26.078125 56.59375 19.921875 
L 66.609375 0 
L 56 0 
L 46.6875 18.703125 
Q 43.0625 26.03125 39.671875 28.421875 
Q 36.28125 30.8125 30.421875 30.8125 
L 19.671875 30.8125 
L 19.671875 0 
L 9.8125 0 
L 9.8125 72.90625 
L 32.078125 72.90625 
Q 44.578125 72.90625 50.734375 67.671875 
Q 56.890625 62.453125 56.890625 51.90625 
Q 56.890625 45.015625 53.6875 40.46875 
Q 50.484375 35.9375 44.390625 34.1875 
z
M 19.671875 64.796875 
L 19.671875 38.921875 
L 32.078125 38.921875 
Q 39.203125 38.921875 42.84375 42.21875 
Q 46.484375 45.515625 46.484375 51.90625 
Q 46.484375 58.296875 42.84375 61.546875 
Q 39.203125 64.796875 32.078125 64.796875 
z
" id="DejaVuSans-82"/>
      <path d="M 4.203125 54.6875 
L 13.1875 54.6875 
L 24.421875 12.015625 
L 35.59375 54.6875 
L 46.1875 54.6875 
L 57.421875 12.015625 
L 68.609375 54.6875 
L 77.59375 54.6875 
L 63.28125 0 
L 52.6875 0 
L 40.921875 44.828125 
L 29.109375 0 
L 18.5 0 
z
" id="DejaVuSans-119"/>
     </defs>
     <g transform="translate(482.414062 43.398438)scale(0.1 -0.1)">
      <use xlink:href="#DejaVuSans-82"/>
      <use x="69.451172" xlink:href="#DejaVuSans-97"/>
      <use x="130.730469" xlink:href="#DejaVuSans-119"/>
      <use x="212.517578" xlink:href="#DejaVuSans-32"/>
      <use x="244.304688" xlink:href="#DejaVuSans-68"/>
      <use x="321.306641" xlink:href="#DejaVuSans-97"/>
      <use x="382.585938" xlink:href="#DejaVuSans-116"/>
      <use x="421.794922" xlink:href="#DejaVuSans-97"/>
     </g>
    </g>
    <g id="line2d_27">
     <path d="M 454.414062 54.576563 
L 474.414062 54.576563 
" style="fill:none;stroke:#4169e1;stroke-linecap:square;stroke-opacity:0.7;stroke-width:2;"/>
    </g>
    <g id="line2d_28"/>
    <g id="text_24">
     <!-- Smoothed -->
     <g transform="translate(482.414062 58.076563)scale(0.1 -0.1)">
      <use xlink:href="#DejaVuSans-83"/>
      <use x="63.476562" xlink:href="#DejaVuSans-109"/>
      <use x="160.888672" xlink:href="#DejaVuSans-111"/>
      <use x="222.070312" xlink:href="#DejaVuSans-111"/>
      <use x="283.251953" xlink:href="#DejaVuSans-116"/>
      <use x="322.460938" xlink:href="#DejaVuSans-104"/>
      <use x="385.839844" xlink:href="#DejaVuSans-101"/>
      <use x="447.363281" xlink:href="#DejaVuSans-100"/>
     </g>
    </g>
    <g id="line2d_29">
     <path d="M 454.414062 69.254688 
L 474.414062 69.254688 
" style="fill:none;stroke:#ff6347;stroke-dasharray:5.55,2.4;stroke-dashoffset:0;stroke-opacity:0.8;stroke-width:1.5;"/>
    </g>
    <g id="line2d_30"/>
    <g id="text_25">
     <!-- 2nd Derivative -->
     <g transform="translate(482.414062 72.754688)scale(0.1 -0.1)">
      <use xlink:href="#DejaVuSans-50"/>
      <use x="63.623047" xlink:href="#DejaVuSans-110"/>
      <use x="127.001953" xlink:href="#DejaVuSans-100"/>
      <use x="190.478516" xlink:href="#DejaVuSans-32"/>
      <use x="222.265625" xlink:href="#DejaVuSans-68"/>
      <use x="299.267578" xlink:href="#DejaVuSans-101"/>
      <use x="360.791016" xlink:href="#DejaVuSans-114"/>
      <use x="401.904297" xlink:href="#DejaVuSans-105"/>
      <use x="429.6875" xlink:href="#DejaVuSans-118"/>
      <use x="488.867188" xlink:href="#DejaVuSans-97"/>
      <use x="550.146484" xlink:href="#DejaVuSans-116"/>
      <use x="589.355469" xlink:href="#DejaVuSans-105"/>
      <use x="617.138672" xlink:href="#DejaVuSans-118"/>
      <use x="676.318359" xlink:href="#DejaVuSans-101"/>
     </g>
    </g>
    <g id="line2d_31">
     <path d="M 454.414062 83.932813 
L 474.414062 83.932813 
" style="fill:none;stroke:#ff00ff;stroke-dasharray:7.4,3.2;stroke-dashoffset:0;stroke-opacity:0.7;stroke-width:2;"/>
    </g>
    <g id="line2d_32"/>
    <g id="text_26">
     <!-- Hyperbolic Fit -->
     <defs>
      <path d="M 9.8125 72.90625 
L 19.671875 72.90625 
L 19.671875 43.015625 
L 55.515625 43.015625 
L 55.515625 72.90625 
L 65.375 72.90625 
L 65.375 0 
L 55.515625 0 
L 55.515625 34.71875 
L 19.671875 34.71875 
L 19.671875 0 
L 9.8125 0 
z
" id="DejaVuSans-72"/>
      <path d="M 32.171875 -5.078125 
Q 28.375 -14.84375 24.75 -17.8125 
Q 21.140625 -20.796875 15.09375 -20.796875 
L 7.90625 -20.796875 
L 7.90625 -13.28125 
L 13.1875 -13.28125 
Q 16.890625 -13.28125 18.9375 -11.515625 
Q 21 -9.765625 23.484375 -3.21875 
L 25.09375 0.875 
L 2.984375 54.6875 
L 12.5 54.6875 
L 29.59375 11.921875 
L 46.6875 54.6875 
L 56.203125 54.6875 
z
" id="DejaVuSans-121"/>
      <path d="M 18.109375 8.203125 
L 18.109375 -20.796875 
L 9.078125 -20.796875 
L 9.078125 54.6875 
L 18.109375 54.6875 
L 18.109375 46.390625 
Q 20.953125 51.265625 25.265625 53.625 
Q 29.59375 56 35.59375 56 
Q 45.5625 56 51.78125 48.09375 
Q 58.015625 40.1875 58.015625 27.296875 
Q 58.015625 14.40625 51.78125 6.484375 
Q 45.5625 -1.421875 35.59375 -1.421875 
Q 29.59375 -1.421875 25.265625 0.953125 
Q 20.953125 3.328125 18.109375 8.203125 
z
M 48.6875 27.296875 
Q 48.6875 37.203125 44.609375 42.84375 
Q 40.53125 48.484375 33.40625 48.484375 
Q 26.265625 48.484375 22.1875 42.84375 
Q 18.109375 37.203125 18.109375 27.296875 
Q 18.109375 17.390625 22.1875 11.75 
Q 26.265625 6.109375 33.40625 6.109375 
Q 40.53125 6.109375 44.609375 11.75 
Q 48.6875 17.390625 48.6875 27.296875 
z
" id="DejaVuSans-112"/>
      <path d="M 48.6875 27.296875 
Q 48.6875 37.203125 44.609375 42.84375 
Q 40.53125 48.484375 33.40625 48.484375 
Q 26.265625 48.484375 22.1875 42.84375 
Q 18.109375 37.203125 18.109375 27.296875 
Q 18.109375 17.390625 22.1875 11.75 
Q 26.265625 6.109375 33.40625 6.109375 
Q 40.53125 6.109375 44.609375 11.75 
Q 48.6875 17.390625 48.6875 27.296875 
z
M 18.109375 46.390625 
Q 20.953125 51.265625 25.265625 53.625 
Q 29.59375 56 35.59375 56 
Q 45.5625 56 51.78125 48.09375 
Q 58.015625 40.1875 58.015625 27.296875 
Q 58.015625 14.40625 51.78125 6.484375 
Q 45.5625 -1.421875 35.59375 -1.421875 
Q 29.59375 -1.421875 25.265625 0.953125 
Q 20.953125 3.328125 18.109375 8.203125 
L 18.109375 0 
L 9.078125 0 
L 9.078125 75.984375 
L 18.109375 75.984375 
z
" id="DejaVuSans-98"/>
      <path d="M 9.8125 72.90625 
L 51.703125 72.90625 
L 51.703125 64.59375 
L 19.671875 64.59375 
L 19.671875 43.109375 
L 48.578125 43.109375 
L 48.578125 34.8125 
L 19.671875 34.8125 
L 19.671875 0 
L 9.8125 0 
z
" id="DejaVuSans-70"/>
     </defs>
     <g transform="translate(482.414062 87.432813)scale(0.1 -0.1)">
      <use xlink:href="#DejaVuSans-72"/>
      <use x="75.195312" xlink:href="#DejaVuSans-121"/>
      <use x="134.375" xlink:href="#DejaVuSans-112"/>
      <use x="197.851562" xlink:href="#DejaVuSans-101"/>
      <use x="259.375" xlink:href="#DejaVuSans-114"/>
      <use x="300.488281" xlink:href="#DejaVuSans-98"/>
      <use x="363.964844" xlink:href="#DejaVuSans-111"/>
      <use x="425.146484" xlink:href="#DejaVuSans-108"/>
      <use x="452.929688" xlink:href="#DejaVuSans-105"/>
      <use x="480.712891" xlink:href="#DejaVuSans-99"/>
      <use x="535.693359" xlink:href="#DejaVuSans-32"/>
      <use x="567.480469" xlink:href="#DejaVuSans-70"/>
      <use x="624.890625" xlink:href="#DejaVuSans-105"/>
      <use x="652.673828" xlink:href="#DejaVuSans-116"/>
     </g>
    </g>
   </g>
  </g>
 </g>
 <defs>
  <clipPath id="pb60acb2470">
   <rect height="363.4" width="517.4" x="47.8" y="26.8"/>
  </clipPath>
 </defs>
</svg>
